<?xml version="1.0" encoding="utf-8"?>
<!-- Generator: Adobe Illustrator 16.0.0, SVG Export Plug-In . SVG Version: 6.00 Build 0)  -->
<!DOCTYPE svg PUBLIC "-//W3C//DTD SVG 1.1//EN" "http://www.w3.org/Graphics/SVG/1.1/DTD/svg11.dtd">
<svg version="1.1" id="Layer_1" xmlns="http://www.w3.org/2000/svg" xmlns:xlink="http://www.w3.org/1999/xlink" x="0px" y="0px"
	 width="100px" height="172.414px" viewBox="0 0 100 172.414" enable-background="new 0 0 100 172.414" xml:space="preserve">
<path fill="#FFFFFF" d="M85.28,21.85c-5.279,1.119-9.424,2.614-13.65,6.159c-1.453,1.219-4.07,4.111-5.023,6.685
	c-0.328-0.289-0.671-0.576-1.037-0.858c0.27-3.396,0.742-6.767,1.201-10.142c0.189-0.201,0.371-0.436,0.538-0.724
	c0.712-1.226,0.884-2.812,1.337-4.146c0.434-1.279,0.745-2.6,0.816-3.952c0.138-2.658-2.131-3.381-4.355-3.202
	c-2.273,0.184-3.599,0.936-4.414,3.03c-0.543,1.391-1.631,5.683-0.656,7.699c-0.779,2.551-1.65,5.065-2.785,7.487
	c-1.955-0.488-4.111-0.78-6.47-0.78c-1.944,0-3.747,0.164-5.409,0.483c-2.109-2.616-3.759-5.49-5.192-8.5
	c0.014-0.169,0.006-0.344-0.053-0.526c-0.439-1.359-0.979-2.677-1.386-4.047c-0.374-1.254-0.781-2.606-1.626-3.632
	c-1.837-2.23-4.749-0.992-6.422,0.775c-1.907,2.013-1,4.329,0.221,6.429c0.951,1.637,2.158,2.924,3.71,3.042
	c1.657,3.055,3.168,6.189,3.495,9.667c-0.083,0.07-0.177,0.13-0.259,0.202c-0.718,0.595-1.386,1.21-2.015,1.845
	c-1.237-2.543-3.233-5.021-4.41-6.403c-3.836-4.504-8.696-7.473-14.755-7.313c-0.513,0.014-0.998,0.325-1.281,0.751
	c0.001,0.03,0.015,0.051,0.013,0.082c-0.037,0.867,0.329,1.631,0.614,2.429c2.25,3.862,2.617,8.751,5.677,12.136
	c2.623,2.9,5.858,4.398,9.458,4.909c-1.708,3.516-2.666,7.551-3.035,12.269v26.373c0.176,2.654,0.707,5.31,1.415,7.963
	c1.239,4.426,3.716,9.734,8.85,13.1c-2.655,1.412-5.31,3.537-7.434,6.193c-2.125,2.654-3.717,5.486-3.717,8.318
	c0,7.609,4.955,11.324,10.797,12.92c-3.363,1.592-6.902,3.539-9.557,6.018c-2.656,2.479-4.425,5.309-4.425,8.67
	c0,7.082,2.831,11.682,7.964,14.514c4.955,2.832,12.211,4.072,20.708,4.248c7.257,0,15.044-1.592,20.884-5.309
	c5.663-3.717,9.734-10.09,9.734-19.469c0-8.496-3.362-13.627-8.142-16.992c-4.956-3.361-10.974-4.775-16.637-5.486
	c-3.362-0.529-6.547-1.063-9.203-1.945c-2.655-0.709-4.426-1.949-4.426-4.072c0-1.594,0.885-3.01,2.479-4.424
	c0.531,0.176,1.238,0.176,1.769,0.176h1.594c5.486,0,9.911-1.238,13.095-3.715c6.196-4.779,9.382-11.152,9.913-20.177V53.178
	c0.042-4.685-0.261-8.038-2.142-11.746c3.443-1.212,6.785-1.895,9.062-5.281c1.171-1.743,1.796-3.567,2.281-5.599
	c0.208-0.87,0.644-2.897,1.401-4.167c0.168-0.848,0.754-1.569,1.427-2.187c0.558-0.511,0.812-1.122,1.002-1.763
	C86.499,21.993,85.963,21.706,85.28,21.85z M47.948,131.761l9.203,1.766c4.424,0.711,6.725,1.594,8.143,2.832
	c1.238,1.238,1.416,2.479,1.416,4.072c0,2.301-1.947,3.891-4.602,4.957c-2.656,1.063-6.018,1.59-9.027,1.59
	c-8.318,0-11.681-3.008-11.681-6.727C41.4,136.536,44.231,133.882,47.948,131.761z M56.266,80.965c0,1.589-0.176,3.185-0.53,4.423
	c-0.709,2.125-1.946,4.246-4.956,4.246c-1.416,0-2.479-0.527-3.187-1.416c-1.592-1.765-2.123-3.892-1.946-7.252V54.417
	c-0.177-1.593,0-3.188,0.354-4.427c0.53-2.121,1.947-4.426,4.779-4.426c1.593,0,2.655,0.532,3.363,1.417
	c1.415,1.949,2.123,4.07,2.123,7.436V80.965z"/>
</svg>
