<?xml version="1.0" encoding="utf-8"?>
<!-- Generator: Adobe Illustrator 16.0.0, SVG Export Plug-In . SVG Version: 6.00 Build 0)  -->
<!DOCTYPE svg PUBLIC "-//W3C//DTD SVG 1.1//EN" "http://www.w3.org/Graphics/SVG/1.1/DTD/svg11.dtd">
<svg version="1.1" id="Layer_1" xmlns="http://www.w3.org/2000/svg" xmlns:xlink="http://www.w3.org/1999/xlink" x="0px" y="0px"
	 width="612px" height="792px" viewBox="0 0 612 792" enable-background="new 0 0 612 792" xml:space="preserve">
<g id="Layer_2">
</g>
<g id="Layer_5">
	<g>
		<path fill="#895A25" d="M337.952,56.758l4.436-5v3.75l3.438-2.063v0.001c0.319-1.05,0.691-2.043,1.127-2.938c0,0,4.75-0.75,7-5.75
			c4.226-9.389-12-12.5-15-7.5s0,11,0,11l-3.649,7.3l2.649-2.712V56.758z"/>
		<path fill="#895A25" d="M296.452,54.258l1.25-4.729l3.676,1.581l-3.426-6.852c0,0,0,0,0-9s-14-2-14,4.469s8,5.531,8,5.531l1.44,9
			v-4.729L296.452,54.258z"/>
		<path fill="#D08629" d="M402.952,101.258c-6-1-31-7-31-7l-6-10c0,0,15-5,24-11s9.75-24.25,7-25c-3.136-0.855-7.302,3.29-12,5
			c-5.851,2.129-15,2-22,10s-8.086,16-8.086,16l-10.914-9c0,0-0.287-9.714,1.873-16.812v-0.001l-3.438,2.063v-3.75l-4.436,5v-3.913
			l-2.649,2.712l-5.351,10.7c0,0-5-1-10,0s-10,2-10,2l-8.574-17.148l-3.676-1.581l-1.25,4.729l-3.06-4.729v4.729l2.56,16l-9,6
			c0,0-10-27-18-32s-18-7-17,0s2,13,5,28s23,22,23,22s-3,6-4,32s24,31,24,31s1.229,8.2,2.376,18.034
			c0.001,0,12.957,5.633,13.624,7.3s0.333,29.667-1.667,32s-13.863,5.896-13.863,5.896v-0.002
			c-3.331,16.973-8.114,37.28-10.47,53.773c-0.262,1.833-0.538,3.753-0.824,5.74c5.824,3.927,14.824,11.926,14.824,15.26
			s5.448,28.667,4.392,31.667c-1.059,3-27.837,11.7-27.837,11.7c-2.292,15.373-4.579,30.596-6.554,43.633
			c-0.049,0.323-0.104,0.671-0.159,1.013c7.931-0.027,23.979,2.334,25.826,3.653c2.333,1.666,10.958,28.999,10.979,30.666
			c0.021,1.667-9.646,20.666-12.312,22s-27.333,4.666-28.667,4c-0.483-0.241-3.205-3.994-6.475-8.674
			c-5.165,22.817-11.599,49.766-18.308,76.617c6.839,2.637,20.082,9.615,21.115,10.391c1.333,1,5.667,24.667,6,26.667
			s-12.667,12.666-14,13.333s-15.333,7-17,7c-0.942,0-5.401-3.517-9.039-7.176c-2.287,8.6-4.53,16.861-6.689,24.621
			c0.709,0.396,1.315,0.905,1.722,1.555c1.673,2.667,3.007,10.333,2.673,12s-6.75,15.985-9.375,15.333
			c-0.81-0.201-1.782-0.146-2.759-0.016l-2.13,10.138c5.906-0.673,11.509-1.122,13.264-1.122c4,0,10.333,10.666,12,13
			s1.667,26.334,0,28.667c-1.292,1.809-22.408-3.393-32.461-6.288c0,0-7.726,37.014-10.573,50.4
			c-14.25,67,80.117,100.972,94.617,11.972c0.582-3.57,10.75-62.75,10.75-62.75s4.964-28.01,10.278-56.162
			c-4.187-1.336-8.38-3.12-9.278-3.839c-1.667-1.333-8-30.333-8-30.333c1.667-5.333,16-16.333,18-17
			c1.269-0.423,6.023-0.844,9.758-0.756c3.175-18.317,8.653-81.363,13.714-144.225c-4.126,0.311-8.395,0.339-9.472-0.02
			c-2-0.666-2-34.334-1.667-36.334c0.239-1.432,9.013-6.447,14.717-8.817c2.69-34.439,5.026-65.231,6.496-83.938
			c-5.596-0.097-11.071-0.59-12.219-1.244c-2.34-1.333,0.34-34.333,0.006-35.667c-0.281-1.126,8.711-6.057,14.927-8.767
			c0.74-30.663,0.74-71.899,0.74-71.899s0-6,8-5s39-1,51-4s14-17,17-29S408.952,102.258,402.952,101.258z M301.952,624.257
			c1,3.333-3.333,16.334-6,19s-18,4-21.333,2.02s-19.333-22.353-19.333-25.353s7-24.333,10-27.333c0,0,18.667,7.666,20,7.862
			S300.952,620.924,301.952,624.257z M321.619,499.257c-1.667,1.667-26,18-27.667,17s-16.333-20.666-17.333-21.333
			c-0.5-0.334,3.656-17.33,9.428-23.666c4.551-4.996,29.072-11.667,29.572-11.334C316.619,460.59,323.286,497.59,321.619,499.257z"
			/>
		<path fill="#772F1B" d="M314.285,214.591c2-2.333,2.334-30.333,1.667-32s-13.622-7.299-13.624-7.3
			c0.645,5.527,1.264,11.569,1.624,16.966c0.411,6.164-1.206,16.385-3.53,28.227v0.002
			C300.422,220.487,312.285,216.925,314.285,214.591z"/>
		<path fill="#772F1B" d="M308.344,326.925c1.057-3-4.392-28.333-4.392-31.667s-9-11.333-14.824-15.26
			c-2.358,16.371-5.493,37.636-8.622,58.627C280.507,338.625,307.285,329.925,308.344,326.925z"/>
		<path fill="#772F1B" d="M335.285,240.924c0.334,1.333-2.346,34.333-0.006,35.667c1.147,0.654,6.623,1.146,12.219,1.244
			c0.698-8.888,1.201-15.052,1.454-17.577c0.563-5.641,0.969-16.055,1.26-28.101C343.996,234.868,335.004,239.798,335.285,240.924z"
			/>
		<path fill="#772F1B" d="M326.285,370.59c-0.333,2-0.333,35.668,1.667,36.334c1.077,0.358,5.346,0.33,9.472,0.02
			c1.23-15.283,2.437-30.555,3.578-45.171C335.298,364.143,326.524,369.158,326.285,370.59z"/>
		<path fill="#772F1B" d="M269.619,443.59c1.333,0.666,26-2.666,28.667-4s12.333-20.333,12.312-22
			c-0.021-1.667-8.646-29-10.979-30.666c-1.847-1.319-17.895-3.681-25.826-3.653c-1.631,10.327-5.508,28.932-10.649,51.646
			C266.414,439.596,269.136,443.349,269.619,443.59z"/>
		<path fill="#772F1B" d="M286.047,471.258c-5.771,6.336-9.928,23.332-9.428,23.666c1,0.667,15.667,20.333,17.333,21.333
			s26-15.333,27.667-17s-5-38.667-6-39.333C315.119,459.591,290.598,466.262,286.047,471.258z"/>
		<path fill="#772F1B" d="M257.952,561.924c1.333-0.667,14.333-11.333,14-13.333s-4.667-25.667-6-26.667
			c-1.034-0.775-14.276-7.754-21.115-10.391c-4.284,17.15-8.679,34.255-12.924,50.215c3.638,3.659,8.097,7.176,9.039,7.176
			C242.619,568.924,256.619,562.591,257.952,561.924z"/>
		<path fill="#772F1B" d="M313.952,551.924c-2,0.667-16.333,11.667-18,17c0,0,6.333,29,8,30.333
			c0.898,0.719,5.092,2.503,9.278,3.839c3.609-19.127,7.381-38.319,9.867-48.838c0.193-0.815,0.397-1.851,0.612-3.09
			C319.976,551.08,315.221,551.501,313.952,551.924z"/>
		<path fill="#772F1B" d="M240.619,665.924c1.667-2.333,1.667-26.333,0-28.667s-8-13-12-13c-1.754,0-7.357,0.449-13.264,1.122
			l-7.197,34.257C218.211,662.531,239.327,667.732,240.619,665.924z"/>
		<path fill="#772F1B" d="M220.244,615.257c2.625,0.652,9.042-13.666,9.375-15.333s-1-9.333-2.673-12
			c-0.407-0.649-1.013-1.158-1.722-1.555c-2.191,7.875-4.297,15.237-6.271,21.889l-1.467,6.983
			C218.462,615.11,219.435,615.056,220.244,615.257z"/>
		<path fill="#772F1B" d="M285.286,600.453c-1.333-0.196-20-7.862-20-7.862c-3,3-10,24.333-10,27.333s16,23.372,19.333,25.353
			s18.666,0.646,21.333-2.02s7-15.667,6-19S286.619,600.649,285.286,600.453z"/>
	</g>
</g>
<g id="Layer_4">
	<path fill="#7C471D" d="M395.263,126.947c-2.601-3.104-12.662-11.387-15.712-4.895c-3.076,6.551,6.975,5.836,11.675,6.544
		c0.66,0.263,1.339,0.474,2.048,0.601C394.527,130.398,396.454,128.369,395.263,126.947z"/>
	<path fill="#7C471D" d="M413.089,117.95c-3.493,0.868-5.821,5.119-7.083,8.159c-0.288,0.694-0.023,1.232,0.448,1.531
		c0.252,0.992,1.735,1.468,2.559,0.679c1.403-1.344,3.265-2.418,4.847-3.626c1.405-1.073,3.817-2.577,4.196-4.471
		C418.632,117.338,414.836,117.516,413.089,117.95z"/>
	<path fill="#7C471D" d="M281.398,79.859c-1.833-6.328-4.728-18.291-11.201-22.527c-2.105-3.82-4.819-6.932-9.097-7.771
		c-1.89-0.371-2.695,2.521-0.798,2.893c0.081,0.016,0.157,0.04,0.237,0.059c-0.151,0.366-0.149,0.802,0.117,1.252
		c0.208,0.351,0.406,0.713,0.606,1.072c2.722,5.146,3.27,11.093,6.528,16.089c2.792,4.279,6.662,8.547,11.404,10.627
		C280.328,82.05,281.799,81.242,281.398,79.859z M270.385,66.666c0.923,1.492,1.858,2.977,2.78,4.47
		C272.146,69.732,271.23,68.229,270.385,66.666z"/>
	<path fill="#7C471D" d="M390.166,58.242c-0.182-0.614-0.903-0.934-1.469-0.598c-3.043,1.807-5.797,4.451-9.163,5.647
		c-2.479,0.881-4.782,1.04-7.065,2.463c-2.693,1.678-5.152,4.845-6.157,7.999c-0.36,0.427-0.718,0.856-1.066,1.298
		c-0.663,0.838,0.169,2.205,1.212,1.57c0.222-0.135,0.449-0.254,0.674-0.378c0.244-0.015,0.473-0.119,0.624-0.33
		c5.371-2.677,11.603-2.589,16.719-6.114C388.238,67.206,391.577,62.986,390.166,58.242z"/>
</g>
<g id="Layer_3">
	<path d="M325.785,103.591c0.034-1.803,0.245-3.469-0.125-5.264c-0.172-0.841-0.653-1.471-1.283-1.891
		c-1.582-1.929-5.238-1.693-6.133,1.225c-0.549,1.789-0.536,3.5-0.068,5.155c0.064,0.38,0.192,0.735,0.37,1.065
		c0.021,0.051,0.042,0.103,0.064,0.153c0.086,0.72,0.267,1.426,0.653,1.991c1.074,1.571,3.055,2.271,4.789,1.255
		c1.184-0.694,1.911-2.189,1.72-3.56C325.774,103.676,325.785,103.636,325.785,103.591z"/>
	<path d="M343.72,95.24c-1.55-1.236-3.45-0.752-4.179,1.103c-0.675,1.719-0.801,3.656-0.326,5.436
		c0.133,0.747,0.371,1.456,0.744,2.083c0.517,1.746,3.316,2.684,4.652,0.658C346.375,101.843,346.391,97.369,343.72,95.24z"/>
</g>
</svg>
