<?xml version="1.0" encoding="utf-8"?>
<!-- Generator: Adobe Illustrator 16.0.0, SVG Export Plug-In . SVG Version: 6.00 Build 0)  -->
<!DOCTYPE svg PUBLIC "-//W3C//DTD SVG 1.1//EN" "http://www.w3.org/Graphics/SVG/1.1/DTD/svg11.dtd">
<svg version="1.1" xmlns="http://www.w3.org/2000/svg" xmlns:xlink="http://www.w3.org/1999/xlink" x="0px" y="0px" width="612px"
	 height="2228.988px" viewBox="0 0 612 2228.988" enable-background="new 0 0 612 2228.988" xml:space="preserve">
<g id="Layer_1" display="none">
	<g id="Layer_5" display="inline">
		<g>
			<path fill="#D08629" d="M135.978,21.288c-14.25,67,80.117,100.972,94.617,11.972"/>
		</g>
	</g>
</g>
<g id="Layer_3">
	<path fill="#D08629" d="M143.132,30.286l94.617,11.972c-13,80.846-20.5,334.334-20.5,385.331s6,230.987,4.5,262.486
		s5.998,524.989,4.5,557.97c-1.321,29.093,17.733,353.78,22.499,386.979c16.128,112.344,37.699,226.488,35.998,341.982
		c-0.482,32.756,2.94,91.062,0.095,133.493c-2.311,34.454-0.095,91.494-60.092,95.994s-70.496-52.497-70.496-89.995
		s12-127.494,10.5-163.492s-23.999-197.989-29.999-223.488s-38.998-463.476-37.498-481.475s8.999-536.971,10.499-553.47
		s12-250.486,12-271.485s10.5-296.985,13.5-323.984S143.132,30.286,143.132,30.286z"/>
</g>
</svg>
