<?xml version="1.0" encoding="utf-8"?>
<!-- Generator: Adobe Illustrator 16.0.0, SVG Export Plug-In . SVG Version: 6.00 Build 0)  -->
<!DOCTYPE svg PUBLIC "-//W3C//DTD SVG 1.1//EN" "http://www.w3.org/Graphics/SVG/1.1/DTD/svg11.dtd">
<svg version="1.1" xmlns="http://www.w3.org/2000/svg" xmlns:xlink="http://www.w3.org/1999/xlink" x="0px" y="0px" width="792px"
	 height="2180px" viewBox="0 0 792 2180" enable-background="new 0 0 792 2180" xml:space="preserve">
<g id="Layer_1">
	<rect y="284.618" fill="#2D3A29" width="792" height="1895.382"/>
	<path fill="#2D3A29" d="M787.038,304.426c-1.802-1.034-0.617-0.097-1.963-1.468c1.148,1.17-0.093-0.183-0.305-0.548
		c-0.008-0.014-0.013-0.021-0.021-0.034c-0.02-0.105-0.055-0.252-0.119-0.473c-0.034-0.169-0.061-0.293-0.083-0.396
		c-0.024-0.505-0.023-1.013-0.011-1.517c0.004-0.165,0.006-0.29,0.005-0.396c0.022-0.109,0.048-0.238,0.078-0.404
		c0.142-0.777,0.358-1.54,0.571-2.3c1.3-4.659,4.275-9.6,7.455-14.237c-2.254-8.95,4.84-21.014,8.767-27.734
		c3.771-6.455,7.933-12.824,12.452-18.904c-0.958-0.11-1.966-0.035-2.992,0.272c-11.79,3.526-22.02,10.716-30.88,19.103
		c-0.35,0.331-0.691,0.667-1.033,1.005c-1.347,1.674-2.709,3.336-4.121,4.954c-0.887,1.016-1.831,2.131-2.827,3.234
		c-0.571,0.824-1.125,1.66-1.645,2.52c-0.11-0.154-0.234-0.294-0.349-0.444c-1.502,1.458-3.117,2.757-4.874,3.575
		c-4.187,1.946-9.271,1.321-11.872-2.942c-2.424-3.972-1.673-9.099-0.152-13.266c1.922-5.266,4.87-11.893,8.887-17.044
		c-0.65-0.527-1.39-0.965-2.187-1.292c-6.1,1.723-12.094,3.723-17.694,6.589c-2.747,1.406-5.317,3.045-7.78,4.826
		c-0.685,0.832-1.354,1.679-1.996,2.547c-7.139,7.238-14.464,14.291-22.143,20.944c-1.612,0.62-3.165,1.429-4.609,2.411
		c-4.25-1.934-8.35-4.489-12.103-6.743c-1.184,0.322-2.533,0.109-3.895-0.922c-2.885-2.185-4.816-5.002-6.063-8.159
		c-0.571-0.286-1.169-0.521-1.793-0.67c0.236-0.875,0.507-1.734,0.766-2.6c-1.532-6.271-0.983-13.387-0.098-19.438
		c0.241-1.65,0.623-4.046,1.232-6.594c-0.046-0.02-0.091-0.045-0.138-0.063c-7.119,4.824-13.644,10.528-19.6,16.75
		c-3.412,6.084-6.023,12.574-8.656,19.173c-1.583-1.242-3.224-2.423-4.906-3.552c-2.228-2.587-4.45-5.179-6.759-7.695
		c-4.604-5.02-10.359-8.796-15.946-12.632c-3.426-2.352-6.943-4.553-10.544-6.607c-11.446-8.725-25.279-14.479-39.429-15.253
		c-3.117-0.17-5.607,1.792-6.944,4.379c7.68,4.961,14.198,13.475,20.021,19.96c5.249,5.846,10.407,11.781,15.417,17.833
		c1.071,1.294,1.43,2.727,1.302,4.079c0.071,1.251,0.014,2.538-0.039,3.794c-0.537-0.064-1.075-0.128-1.612-0.191
		c-1.897,2.047-5.018,2.739-7.307-0.026c-0.306-0.369-0.622-0.729-0.928-1.097c-4.214-0.707-8.332-1.705-12.206-3.472
		c-1.735-1.137-3.445-2.101-5-2.833c-0.35-0.165-0.694-0.298-1.037-0.417c7.843-6.071,0.869-18.127-8.372-13.583
		c-9.905,4.871-20.245,8.787-30.093,13.809c-2.277,1.162-5.521,2.77-8.806,4.76c0.722-6.143,2.381-12.074,5.996-17.319
		c1.396-2.025-1.504-3.724-3.141-2.423c-0.913,0.725-1.799,1.482-2.671,2.254c-0.611,1.476-1.926,2.729-3.507,3.326
		c-2.206,2.238-4.278,4.609-6.225,7.072c-2.213-6.266-4.969-12.418-7.618-18.485c-1.388-2.171-2.735-4.345-4.154-6.34
		c-2.307-3.245-8.105-12.898-12.972-11.193c-0.125,0.044-0.246,0.074-0.368,0.109c3.231,13.426,6.451,26.806,4.148,40.777
		c-0.537,3.262-3.167,4.315-5.664,3.794c0.354,1.39,0.81,2.897,1.161,4.37c-1.916-1.407-4.161-2.422-6.852-2.866
		c-1.739-0.287-3.097,1.28-2.258,2.938c1.37,2.711,2.708,5.316,3.749,7.987c-3.073-0.301-6.281-1.863-9.092-2.67
		c-3.449-0.991-8.006-1.584-11.815-0.581c6.335-3.399,13.261-7.671,14.599-14.953c0.857-4.665-2.136-10.641-7.714-10.126
		c-14.648,1.35-25.434,10.342-34.409,21.291c-2.59-1.054-5.287-1.865-8.131-2.338c-0.611-0.102-1.238-0.125-1.867-0.083
		c0.493-2.23,1.056-4.443,1.677-6.637c-0.021-0.526,0.029-1.083,0.177-1.671c2.72-10.837,5.866-21.597,10.216-31.904
		c0.763-1.809,1.571-3.667,2.448-5.52c-13.92,12.464-26.818,25.996-36.629,42.037c-1.589,3.183-3.324,6.471-4.898,9.841
		c-0.381-0.674-0.758-1.337-1.121-1.977c-4.729-8.315-10.822-17.306-18.994-22.686c-3.381-3.944-6.983-7.672-10.683-11.161
		c-12.637-5.88-26.691-9.127-40.354-11.499c0.106,0.845,0.685,1.601,1.749,1.631c0.132,0.146,0.283,0.285,0.478,0.402
		c8.794,5.313,13.899,15.148,15.784,24.961c0.104,0.544,0.201,1.092,0.293,1.643c-1.167-0.259-2.455-0.299-3.861-0.045
		c-15.556,2.814-30.289,8.484-45.123,13.792c-3.301-4.519-10.27-6.478-17.583-7.24c-4.055,2.248-7.693,5.168-11.133,8.53
		c-2.215,2.166-5.242-0.085-4.808-2.799c1.295-8.095,4.049-18.545,10.796-23.675c-0.638-0.16-1.313-0.244-2.022-0.227
		c-11.113,0.266-22.262,4.19-31.85,10.299c2.595-9.087,5.76-18.034,8.898-26.84c0.362-1.017,0.444-2.032,0.325-3.013
		c2.213-4.719,4.742-9.245,7.688-13.438c1.028-1.463-0.313-2.866-1.725-2.903c-0.48-0.191-1.061-0.179-1.678,0.167
		c-4.764,2.667-9.944,5.533-14.284,9.183c-0.716,0.192-1.416,0.506-2.078,0.969c-11.294,7.908-20.942,18.516-29.125,29.523
		c-0.92,1.238-1.844,2.564-2.745,3.948c-0.095,4.102-5.461,7.697-9.254,3.932c-2.292-2.275-5.449-5.416-8.521-8.987
		c-0.209,0.15-0.425,0.291-0.632,0.444c-0.254-0.444-0.499-0.894-0.779-1.322c-0.615-0.943-1.327-1.699-2.107-2.288
		c0.078-0.305,0.142-0.615,0.216-0.921c-4.657-6.193-8.17-13.098-6.509-18.878c-1.349-0.016-2.692,0.349-3.878,1.217
		c-6.242,4.563-12.432,9.935-16.82,16.411c-2.325-1.354-5.056-1.98-8.34-1.432c-1.061,0.177-1.685,1.497-1.397,2.46
		c1.863,6.239,4.402,12.316,7.403,18.147c0.611,2.012,1.328,4.029,1.99,6.069c-6.736-2.703-12.634-7.527-19.139-10.872
		c0.232-11.326-0.27-22.447,10.684-30.148c1.757-1.235,0.743-4.403-1.541-3.656c-10.69,3.498-21.983,5.928-32.407,10.261
		c-1.327,0.509-2.618,1.091-3.875,1.74c-2.855,1.362-5.624,2.909-8.28,4.695c-3.007-6.634-6.765-12.951-11.492-18.848
		c-1.305-1.628-3.838,0.137-3.343,1.946c2.004,7.316,1.504,15.41,0.353,22.825c-0.332,2.135-0.762,4.456-1.362,6.782
		c-3.292,2.754-6.36,5.779-9.106,9.014c-0.003-0.114-0.008-0.229-0.028-0.351c-2.322-14.094,0.566-28.158,1.371-42.25
		c0.572-0.273,1.143-0.546,1.71-0.825c1.837-0.904,0.895-3.727-1.009-3.727c-0.464,0-0.938,0.072-1.417,0.183
		c-0.52-0.172-1.096-0.171-1.593,0.09c-0.224,0.118-0.44,0.245-0.661,0.366c-0.58-0.19-1.219-0.06-1.744,0.614
		c-0.178,0.228-0.344,0.461-0.514,0.692c-1.208,0.738-2.385,1.521-3.534,2.342c-4.924,2.325-9.755,4.721-14.167,7.712
		c-5.102,1.846-8.993,5.509-12.169,9.866c-8.638,6.41-16.669,13.677-24.649,20.862c-2.102,1.893-4.303,3.819-6.507,5.804
		c-1.239-4.065-5.24-5.858-8.9-5.548c-6.468-8.04-13.837-15.23-22.773-20.558c-3.436-2.048-6.794-1.253-9.053,0.839
		c6.805,7.193,10.833,16.309,13.146,26.058c0.867,0.887,1.736,1.773,2.596,2.667c-0.638,0.354-1.228,0.785-1.756,1.275
		c0.873,4.615,1.401,9.329,1.696,14.012c0.404,0.637,0.809,1.273,1.214,1.909c-0.89,2.232-0.867,4.814,0.545,6.853
		c0.756,1.092,1.547,2.132,2.354,3.15c-0.273,4.198,2.583,7.196,5.952,8.264c0.328,0.975,0.85,1.944,1.612,2.872
		c2.602,3.168,5.398,6.166,8,9.333c2.66,3.238,6.696,2.965,9.735,1.017c5.062,1.096,10.409,0.673,15.896-1.904
		c2.274-1.068,4.396-2.377,6.424-3.832c1.582-0.206,3.203-0.658,4.838-1.409c2.866-1.316,5.499-3.311,7.821-5.677
		c1.405,0.634,2.835,1.212,4.297,1.734c3.139,2.082,6.814,3.54,11.185,4.129c2.462,0.332,4.771-0.168,6.561-1.3
		c2.178,0.028,4.358-0.01,6.541-0.079c1.378,0.952,2.818,1.815,4.321,2.572c4.631,2.333,8.775,0.333,10.699-2.977
		c1.654,0.016,3.307,0.066,4.958,0.178c3.817,0.257,4.8,2.031,6.506,4.779c2.961,4.77,6.212,9.243,10.565,12.848
		c18.835,15.595,47.144,10.053,68.301,2.928c7.255-2.443,14.856-5.504,21.545-9.75c1.9,3.792,7.436,4.65,10.833,2.66
		c4.053-2.374,4.664-6.971,2.87-10.945c-0.42-0.931-0.754-1.962-1.022-3.062c0.981-1.245,1.927-2.516,2.871-3.786
		c0.355,0.517,0.726,1.03,1.132,1.535c3.546,4.414,8.387,6.094,11.871,10.721c2.617,3.477,6.852,5.268,10.945,2.87
		c3.434-2.011,5.5-7.453,2.87-10.945c-3.462-4.599-8.25-8.668-12.004-11.691c-0.291-0.234-0.569-0.481-0.844-0.732
		c1.295-0.775,2.517-1.778,3.601-2.972c0.824-0.016,1.647-0.012,2.458,0.003c11.799,0.214,22.884,3.231,34.74,1.619
		c0.603-0.082,1.22-0.173,1.847-0.272c1.048,2.81,3.586,5.139,7.295,5.417c5.6,0.42,11.016-0.135,16.335-1.195
		c13.702,5.613,29.582,2.111,43.687,6.488c0.515,0.16,1.018,0.357,1.516,0.568c-0.415,3.59-0.739,7.188-0.871,10.806
		c-0.376,10.322,15.625,10.286,16,0c0.068-1.869,0.186-3.749,0.337-5.637c2.625-1.941,5.248-3.913,7.28-6.376
		c0.118,0.083,0.224,0.173,0.345,0.254c5.165,3.479,10.111-0.156,11.385-4.851c0.759,0.783,1.545,1.535,2.349,2.268
		c0.289,4.496-0.121,9.031-1.411,13.548c-2.838,9.943,12.601,14.158,15.428,4.254c0.983-3.443,1.599-6.876,1.89-10.287
		c0.031-0.011,0.059-0.029,0.089-0.041c1.954,0.355,4.045,0.065,5.679-0.892c0.148-0.087,0.283-0.183,0.423-0.276
		c1.33,19.406,6.234,38.648,13.965,56.073c1.77,3.988,7.502,4.887,10.946,2.87c4.069-2.384,4.639-6.959,2.87-10.945
		c-5.055-11.394-8.65-23.684-10.594-36.259c7.448-0.054,15.798-6.757,20.969-10.565c0.46-0.339,0.919-0.681,1.378-1.021
		c2.685,3.547,7.838,5.124,11.662,0.874c0.327-0.364,0.633-0.733,0.93-1.105c8.675,5.649,18.037,9.646,28.747,10.115
		c6.706,0.293,9.03-6.357,7.021-11.177c10.104,3.321,18.687-3.569,22.271-12.489c0.729,1.215,1.858,2.207,3.174,2.914
		c0.008,1.871,0.09,3.938,0.898,5.275c0.458,0.755,1.393,1.179,2.259,0.919c1.092-0.327,1.486-1.204,1.639-2.243
		c0.12-0.818-0.207-1.48-0.712-1.921c-0.027-0.268-0.048-0.563-0.063-0.875c1.468,0.094,2.938-0.153,4.218-0.828
		c4.277-2.257,8.628-6.243,13.268-8.9c0.051,1.423,0.179,2.849,0.48,4.286c1.807,8.609,10.676,9.534,17.371,6.461
		c2.087-0.958,4.451-2.488,6.628-4.385c4.714,1.235,9.493,1.568,13.84,0.341c3.172,2.112,7.015,1.296,10.032-1.054
		c-1.404,1.174,0.497-0.329,0.684-0.453c0.931-0.616,1.926-1.134,2.915-1.647c1.878-0.974,3.391-1.508,5.407-2.214
		c0.238-0.083,0.479-0.159,0.719-0.24c0.343,0.066,0.688,0.164,1.071,0.327c5.43,2.311,10.255,6.117,15.509,8.811
		c4.398,2.256,10.551,0.497,11.752-4.781c0.345-1.514,0.573-2.998,0.701-4.454c0.043,0.013,0.082,0.03,0.125,0.042
		c2.484,0.684,5.267,0.021,7.267-1.574c2.786,1.318,5.695,2.326,8.733,2.908c2.385,0.457,4.592-0.069,6.332-1.191
		c1.646,0.14,3.249-0.23,4.654-0.945c0.212,1.301,0.463,2.595,0.76,3.882c1.447,6.281,9.053,7.211,13.371,3.53
		c0.699-0.596,1.332-1.262,1.936-1.957c2.555,3.807,5.762,7.025,9.703,9.208c4.418,2.446,10.482,0.343,11.752-4.781
		c0.509-2.053,0.736-4.031,0.749-5.953c2.323,1.085,5.226,1.146,7.883-0.319c1.307,0.302,2.62,0.536,3.938,0.699
		c-0.106,0.703-0.202,1.407-0.284,2.113c-0.582,5.009,5.576,9.327,10.127,7.714c3.277-1.161,6.208-2.97,8.874-5.174
		c2.312,2.392,5.79,3.65,9.182,3.886c4.827,0.335,9.051-2.809,11.844-6.577c1.034,0.53,2.122,0.954,3.269,1.246
		c1.027,0.261,2.047,0.388,3.05,0.406c1.095,1.008,2.297,1.932,3.617,2.74c1.654,1.012,3.502,1.287,5.251,0.979
		c-0.517,7.406,1.983,14.369,10.082,19.021C787.925,323.389,795.98,309.562,787.038,304.426z M200.754,307.072
		c-10.54,5.487-22.678,8.696-34.378,10.518c-10.36,1.613-21.724,1.126-30.587-4.947c-1.688-1.156-3.062-2.624-4.29-4.231
		c1.178,0.209,2.37,0.398,3.567,0.573c1.218,1.635,2.428,3.197,3.61,4.671c2.732,3.407,8.484,2.83,11.313,0
		c0.807-0.807,1.379-1.688,1.75-2.607c4.934,4.797,14.201-0.881,12.875-8.209c1.526-1.892,2.585-4.121,3.244-6.518
		c0.206-0.081,0.413-0.156,0.616-0.244c4.653,4.254,12.108,5.59,18.691,5.422c5.515-0.141,12.007-0.912,17.939-2.706
		c1.865,0.625,3.796,0.971,5.751,1.092c0.01,0.225,0.03,0.449,0.042,0.674C207.848,303.138,204.376,305.187,200.754,307.072z"/>
</g>
<g id="Layer_2">
	<path fill="#273324" d="M125.338,497.469c-0.708-2.403-3.121-3.732-5.536-3.143c-33.538,8.187-61.194,33.043-84.652,57.157
		c-10.698,10.997-20.96,22.263-30.037,34.661c-8.944,12.216-17.248,26.188-19.787,41.325c-0.274,1.637,0.265,2.991,1.175,3.971
		c-0.983,3.979-1.63,8.03-1.918,12.121c-1.276,3.601-2.257,7.287-2.751,11.104c-0.022,0.175-0.036,0.345-0.041,0.509
		c-4.802,1.504-2.359,9.384,3.07,8.498c39.815-6.502,79.142-21.205,105.498-53.083c13.849-16.75,21.197-36.625,27.432-57.133
		C123.121,535.928,130.762,515.869,125.338,497.469z"/>
	<path fill="#273324" d="M820.695,675.846c-0.29-5.856-0.761-15.157-4.423-21.234c3.767-10.771,3.729-22.364,2.715-33.812
		c1.741-1.197,2.695-3.423,1.23-5.741c-1.569-2.483-1.964-5.795-2.57-8.621c-0.887-4.13-1.725-8.211-2.976-12.252
		c-2.818-9.109-7.272-17.709-12.537-25.626c-10.757-16.176-25.548-29.474-42.99-38.017c-17.211-8.429-36.178-12.454-54.78-16.497
		c-8.826-1.918-17.575-4.233-26.419-6.055c-8.314-1.713-16.686-2.12-24.551,1.454c-2.58,1.172-2.934,5.263-0.91,7.068
		c24.022,21.431,53.083,36.57,75.633,59.72c12.036,12.358,23.234,26.295,32.553,40.804c1.475,2.296,2.834,4.605,4.098,6.946
		c-7.643-3.519-15.461-6.68-23.271-9.745c-10.623-4.169-21.274-7.315-32.159-9.539c-2.119-0.646-4.292-1.073-6.526-1.213
		c-6.486-1.098-13.067-1.887-19.789-2.374c-16.799-1.217-33.662-0.859-50.501-0.873c-0.595-0.141-1.191-0.133-1.763-0.001
		c-3.031-0.007-6.063-0.026-9.092-0.074c-3.61-0.057-5.341,3.813-3.886,6.771c15.594,31.692,46.604,52.742,77.68,67.448
		c17.349,8.209,35.589,15.017,53.647,21.471c20.748,7.416,42.397,13.139,64.559,13.31c3.568,0.028,4.932-3.358,4.114-5.985
		C822.001,695.707,821.097,683.959,820.695,675.846z"/>
	<path fill="#273324" d="M100.999,1077.494c-35.477,3.55-66.845,21.657-96.135,41.623c1.718-2.596,3.432-5.167,5.121-7.716
		c17.725-26.745,37.505-53.313,63.286-72.855c4.5-3.411,0.362-11.086-4.542-7.771c-16.882,11.411-33.592,23.465-49.064,36.867
		c8.644-15.058,19.544-29.225,30.229-42.74c8.861-11.208,18.314-21.96,28.347-32.135c7.815-7.176,15.624-14.334,23.276-21.591
		c4.27-4.048-1.991-10.045-6.364-6.363c-8.218,6.917-16.064,14.243-23.578,21.895c-18.165,16.71-36.338,33.521-52.737,51.814
		c0.85-2.981,1.777-5.939,2.833-8.854c3.313-9.144,8.232-17.682,13.054-26.093c4.452-7.766,8.963-15.486,12.789-23.587
		c3.991-8.45,7.622-16.939,12.252-25.083c9.223-16.22,21.083-30.742,35.085-43.063c3.94-3.468-1.102-9.496-5.453-7.067
		c-27.431,15.313-47.647,40.394-65.973,65.309c-8.111,11.026-16.024,22.194-23.625,33.577c-0.249,0.373-0.506,0.753-0.766,1.138
		c4.095-14.778,9.551-29.275,14.356-43.682c4.035-12.096,8.222-24.712,13.901-36.454c6.646-9.393,13.447-18.686,19.597-28.396
		c2.781-4.393-3.476-8.999-7.068-5.453c-8.616,8.507-15.076,18.666-20.349,29.511c-6.261,8.89-12.402,17.856-17.803,27.316
		c-11.057,19.366-17.035,40.99-27.218,60.749c-2.391,4.64,3.674,8.792,6.845,5.796c-0.276,6.696-0.244,13.382-0.511,19.648
		c-2.252,6.896-2.214,14.684-0.237,21.735c-1.621,10.333-3.915,20.637-4.044,31.092c-0.041,3.33,2.837,4.72,5.352,4.234
		c0.074,1.016,0.529,1.929,1.205,2.646c1.002,2.632,2.294,5.121,3.856,7.427c-0.141,0.172-0.288,0.338-0.428,0.511
		c-2.108,2.597-0.844,5.845,1.3,7.226c-1.755,2.797-3.517,5.592-5.337,8.352c-0.762,1.155-0.93,2.257-0.705,3.215
		c-1.695,1.515-3.037,3.261-2.356,5.829c0.355,1.341,1.375,2.425,2.633,2.952c-0.251,2.161-0.13,4.127,0.577,5.653
		c-1.292,0.915-2.582,1.828-3.868,2.736c-2.993,2.114-2.257,6.045-0.101,7.757c-8.765,16.901-15.02,34.842-14.794,54.129
		c0.063,5.409,7.889,5.774,8.889,1.09c0.268-0.161,0.533-0.351,0.793-0.575c0.135-0.116,0.263-0.239,0.397-0.355
		c-2.805,5.849-4.882,12.012-5.876,18.53c-0.014,0.038-0.029,0.076-0.042,0.114c0.008,0.001,0.016,0.002,0.024,0.003
		c-0.06,0.398-0.133,0.792-0.185,1.193c-0.688,5.341,7.236,5.644,8.839,1.196c4.667-12.945,10.917-25.335,18.245-37.127
		c0.685-0.862,1.371-1.716,2.057-2.555c9.46-11.575,20.257-21.977,30.814-32.529c22.695-22.686,43.586-49.915,74.408-61.979
		C106.542,1084.632,106.445,1076.949,100.999,1077.494z M14.103,1058.797c0.078-0.391,0.159-0.781,0.238-1.172
		c1.462-1.812,2.946-3.605,4.448-5.385c-1.688,2.563-3.333,5.15-4.926,7.767C13.943,1059.604,14.022,1059.2,14.103,1058.797z
		 M-24.609,1177.892c1.315-5.375,3.09-10.637,5.2-15.797c0.858,0.378,1.86,0.503,2.938,0.238c1.352-0.331,2.656-0.744,3.926-1.214
		C-16.834,1166.531-20.917,1172.084-24.609,1177.892z"/>
	<path fill="#273324" d="M811.565,986.614c0.148-2.951-2.425-5.498-4.675-7.385c-4.568-3.83-9.626-7.104-14.62-10.339
		c-13.878-8.989-28.213-17.29-42.564-25.493c-10.356-5.919-20.735-11.838-31.386-17.216c-25.729-12.994-53.673-21.116-82.126-25.352
		c-38.842-5.781-78.305-4.088-117.059,1.491c-4.115,0.592-4.038,6.378-1.075,8.225c8.287,5.164,18.855,5.733,28.336,6.423
		c11.573,0.842,22.608,2.488,34.002,4.796c28.237,5.72,56.263,13.359,82.573,25.25c25.147,11.365,49.154,26.618,72.213,41.703
		c17.848,11.677,37.227,24.566,51.289,41.312c-6.011-2.166-12.266-3.729-18.498-5.078c-13.466-2.912-27.034-5.524-40.705-7.249
		c-30.178-3.807-60.802-2.399-90.868,1.69c-29.692,4.038-59.395,8.353-88.348,16.259c-30.128,8.228-58.175,22.067-86.919,34.004
		c-4.261,1.769-4.321,9.335,1.196,8.839c15.218-1.369,29.488-6.747,44.23-10.367c15.554-3.819,32.078-5.07,47.995-6.554
		c32.67-3.046,64.539-1.611,96.787,4.396c27.917,5.199,55.864,12.057,83.07,20.201c7.787,2.331,15.547,4.901,22.997,8.167
		c3.812,1.671,15.541,6.154,15.786,11.096c0.146,2.953-14.221,3.493-16.185,3.601c-9.131,0.495-18.224,0.772-27.334,1.719
		c-27.4,2.848-54.322,9.922-80.324,18.857c-47.292,16.252-94.009,39.303-129.538,75.203c-3.278,3.312,0.063,8.476,4.378,7.521
		c10.317-2.283,19.35-7.963,28.232-13.444c4.649-2.869,9.325-5.672,14.234-8.077c5.675-2.781,11.993-4.27,18.076-5.873
		c24.581-6.477,49.96-9.464,75.167-12.299c25.827-2.904,51.634-5.813,77.666-4.292c12.716,0.743,25.942,2.4,38.036,6.551
		c7.808,2.68,8.835,7.333,8.892,15.096c0.019,2.543,1.759,3.972,3.703,4.285c1.802,5.403,4.992,10.643,7.578,15.319
		c1.691,3.058,4.916,2.722,6.787,0.866c1.618,0.329,3.336-0.239,4.317-2.199c4.034-8.062,4.852-17.386,5.651-26.236
		c1.005-11.122,1.677-22.311,2.203-33.462c1.137-24.089,0.945-48.472,3.476-72.464c1.806-17.113,4.663-34.104,4.688-51.361
		C822.921,1011.608,821.393,996.146,811.565,986.614z"/>
	<path fill="#273324" d="M110.755,1503.043c-10.766-2.188-21.734-2.437-32.526-0.288c-6.586,1.312-12.861,3.761-18.896,6.742
		c17.079-21.834,44.396-35.347,60.885-57.886c1.904-2.604-0.288-5.6-2.689-6.61c-13.084-5.508-28.313-0.078-40.154,6.139
		c-7.269,3.816-14,8.629-20.554,13.545c-2.885,2.163-5.471,4.431-7.997,7.004c-0.598,0.609-1.195,1.235-1.807,1.846
		c2.706-14.592,11.444-27.511,20.334-39.255c10.653-14.074,23.041-27.081,31.535-42.668c2.036-3.736-1.275-7.204-5.082-6.61
		c-24.193,3.773-45.833,16.94-63.002,34.128c0.859-7.058,2.504-14.021,4.584-20.834c3.383-11.079,8.363-22.376,16.129-31.107
		c3.255-3.659-0.991-10.018-5.453-7.067c-27.067,17.896-44.28,45.692-58.281,74.281c-0.477,0.975-0.591,1.927-0.445,2.797
		c-7.336,3.48-9.359,14.456-10.649,21.734c-2.084,11.763-2.653,23.824-2.826,35.751c-0.65,44.763,5.213,89.253,5.306,133.989
		c0.001,0.798,0.183,1.475,0.475,2.053c-0.551,1.366-1.101,2.729-1.648,4.084c-1.936,4.79,5.82,7.86,8.225,3.468
		c25.496-46.576,69.859-83.071,117.213-105.93c4.982-2.404,9.866-4.242,15.135-5.854c3.57-1.093,8.063-3.282,9.025-7.302
		C130.11,1508.666,118.891,1504.696,110.755,1503.043z"/>
	<path fill="#273324" d="M842.499,1600.785c-1.658-32.332-2.5-64.743-3.289-97.106c-0.386-15.833-0.454-31.672-0.842-47.504
		c-0.356-14.539-1.327-29.641-6.075-43.492c-5.084-14.835-13.82-29.259-25.445-39.858c-1.098-1.001-2.453-1.361-3.72-1.207
		c-0.604-0.122-1.271-0.118-1.992,0.05c-30.879,7.196-58.787,26.652-78.855,50.889c-9.84,11.883-17.469,25.229-23.817,39.247
		c-3.154,6.966-6.076,14.087-8.938,21.179c-2.763,6.848-4.99,14.233-4.359,21.691c0.38,4.488,5.804,6.104,8.386,2.271
		c17.079-25.362,41.888-46.419,71.026-55.878c-24.465,20.082-43.132,46.651-59.32,73.742c-10.73,17.958-20.537,36.138-28.065,55.691
		c-3.93,10.209-7.271,20.635-10.967,30.929c-3.532,9.837-6.692,20.014-6.394,30.577c0.121,4.279,6.235,6.4,8.386,2.271
		c7.521-14.44,15.283-28.878,26.439-40.887c7.674-8.262,17.775-14.096,27.85-19.691c-17.771,30.381-35.396,63.839-27.847,99.503
		c0.561,2.649,4.331,4.379,6.61,2.689c8.478-6.287,12.876-16.138,18.61-24.711c3.172-4.742,7.521-8.323,11.842-11.979
		c3.258-2.756,6.725-5.396,10.399-7.662c-2.966,13.984-6.515,27.829-7.983,42.099c-2.001,19.436-0.973,39.517-0.973,59.035
		c0,3.6,5.135,6.396,7.682,3.182c12.202-15.396,19.579-33.654,30.03-50.16c1.214-1.917,2.507-3.762,3.846-5.561
		c-0.575,11.387-1.103,22.931,2.604,33.735c1.487,4.336,7.148,4.222,8.678,0c7.362-20.316,31.297-25.201,42.88-42.258
		C845.053,1657.801,843.906,1628.232,842.499,1600.785z"/>
	<path fill="#273324" d="M827.552,1982.405c-0.028-0.05-0.061-0.094-0.09-0.142c3.423-6.677-0.139-13.941-4.939-19.995
		c-5.351-6.747-12.967-13.521-22.11-12.17c-4.572,0.676-9.26,4.222-12.948,6.783c-3.269,2.27-7.773,7.217-12.161,6.524
		c-4.798-0.757-6.525-6.661-7.871-10.502c-1.547-4.416-3.189-8.729-6.584-12.075c-2.741-2.703-7.771-0.799-7.682,3.182
		c0.25,11.233,4.573,21.503,7.28,32.255c2.514,9.982,1.214,19.472-4.617,27.993c-5.077,7.419-13.676,12.069-22.026,14.746
		c-4.261,1.364-11.271,3.627-15.285,1.018c-0.238-0.154-0.723-1.336-0.802-2.238c-0.177-2.01,0.219-3.969,0.693-5.908
		c1.317-5.39,3.752-10.481,6.233-15.415c4.6-9.145,10.449-17.643,14.909-26.846c1.635-3.373-1.039-7.826-5.082-6.61
		c-9.124,2.741-16.614,9.631-23.931,15.429c-5.01,3.97-12.818,11.313-20.148,12.086c2.239-15.288,19.939-24.194,22.28-39.979
		c0.338-2.276-0.529-5.02-3.143-5.535c-21.797-4.307-37.394,13.769-55.287,23.386c0.804-2.559,1.405-5.173,1.556-7.918
		c0.39-7.115-4.944-11.792-11.584-12.705c-14.157-1.947-19.434,8.766-24.296,19.401c-3.157-8.756-5.141-17.952-8.394-26.683
		c-3.955-10.615-10.253-19.471-18.104-27.521c-7.59-7.782-16.251-14.734-25.593-20.298c-8.104-4.826-17.881-8.9-27.494-7.823
		c-3.393,0.38-5.603,3.526-3.886,6.771c7.074,13.372,14.768,26.404,21.851,39.771c6.278,11.847,13.024,24.617,16.026,37.78
		c1.381,6.054,1.115,12.782,0.562,18.915c-0.25,2.766-0.701,5.809-1.806,8.378c-0.397,0.927-0.82,1.644-1.499,2.319
		c-0.073,0.017-0.281,0.049-0.642-0.108c-7.37-3.216-8.687-11.569-10.935-18.269c-2.749-8.188-10.045-7.102-16.148-3.162
		c-12.596,8.129-21.186,21.195-32.51,30.87c-2.339,1.997-4.844,3.797-7.595,5.185c-0.549,0.277-2.139,0.673-2.138,0.673
		c-0.724,0.056-0.326,0.135-0.497-0.118c-3.439-5.07,1.092-15.302,2.206-20.537c1.51-7.088,2.788-16.029-3.12-21.523
		c-7.907-7.354-21.387-2.752-29.37,1.761c-9.164,5.181-17.152,12.334-24.495,19.783c-3.401,3.45-6.835,6.998-10.741,9.885
		c-1.356,1.003-2.789,1.91-4.426,2.344c0-0.077-0.019-0.205-0.083-0.432c-0.786-2.785,0.295-6.449,0.876-9.177
		c0.95-4.453,2.239-8.833,3.397-13.233c1.948-7.401,4.206-15.452-1.115-22.019c-6.074-7.496-16.409-4.977-24.433-2.859
		c-4.206,1.109-8.422,2.446-12.813,2.335c-6.435-0.163-14.315-2.953-18.71-7.688c-5.274-5.682-13.376-12.532-20.314-4.858
		c-4.703,5.201-4.353,13.67-3.856,20.16c1.092,14.247,4.712,28.858,8.994,42.486c2.138,6.806,14.577,41.515-3.053,36.845
		c-5.32-1.409-9.345-7.175-12.568-11.243c-3.361-4.243-6.492-8.515-10.888-11.754c-2.286-1.686-6.042,0.037-6.61,2.689
		c-3.928,18.341,1.088,38.339-11.654,53.931c-4.046,4.951-8.623,9.741-13.759,13.57c-3.32,2.476-8.567,6.572-10.184,0.858
		c-1.498-5.293,0.86-10.854,0.354-16.21c-0.643-6.807-6.166-9.974-12.501-10.586c-14.659-1.417-26.871,4.709-39.12,11.14
		c4.74-6.257,9.219-12.693,12.944-19.648c5.129-9.579,13.532-18.521,15.933-29.329c0.563-2.537-0.746-4.674-3.143-5.535
		c-17.652-6.345-38.319,3.117-54.057,10.759c-10.045,4.878-19.297,10.298-27.966,17.39c-4.192,3.43-8.117,7.173-11.501,11.404
		c-0.25,0.313-0.495,0.632-0.742,0.948c5.105-11.13,14.356-21.209,21.089-30.353c10.146-13.777,20.022-29.9,15.653-47.673
		c-0.43-1.749-2.428-3.556-4.339-3.304c-7.564,0.996-13.252,4.912-18.61,10.17c-3.498,3.431-6.617,7.471-10.234,10.867
		c-0.047-17.757-0.326-35.508-1.989-53.203c-0.38-4.046-6.215-6.657-8.386-2.271c-14.166,28.62-41.997,62.599-76.359,65.051
		c7.84-15.547,18.504-29.534,28.037-44.065c5.669-8.642,11.053-17.489,17.589-25.52c5.252-6.452,13.148-10.961,15.625-19.332
		c0.688-2.324-0.803-4.931-3.143-5.535c-29.169-7.535-55.224,11.483-79.066,27.572c10.119-14.992,25.432-26.767,32.209-44.037
		c1.386-3.531-2.551-6.037-5.536-5.535c-19.487,3.279-35.393,16.101-50.25,28.885c9.883-34.321,37.024-61.567,57.998-89.607
		c2.274-3.041-1.532-8.082-5.082-6.61c-26.95,11.172-50.095,29.519-71.215,49.344c-10.368,9.731-20.347,19.944-29.79,30.573
		c-8.493,9.56-17.773,19.204-22.68,31.189c-2.489,0.373-3.839,3.21-3.283,5.649c-0.236-0.706-0.18-0.813-0.303,0.794
		c-0.105,1.365-0.272,2.727-0.437,4.086c-0.509,4.203-1.098,8.227-1.768,12.826c-2.069,14.209-4.293,28.396-6.508,42.584
		c-5.078,32.531-10.327,65.039-15.044,97.626c-1.345,9.292-2.917,18.648-3.557,28.024c-1.462,21.439-6.981,42.646-3.868,64.205
		c6.439,44.591,65.225,37.896,98.118,38.582c64.823,1.353,128.364-11.236,192.245-20.385
		c64.906-9.295,130.595-15.002,196.017-19.124c32.391-2.041,64.822-3.21,97.253-4.38c16.067-0.58,32.128-1.382,48.109-3.195
		c15.59-1.77,31.57-2.826,47.262-2.641c15.643,0.186,31.306,3.052,46.844,4.709c15.307,1.634,30.38,2.724,45.49,5.852
		c27.015,5.592,56.761,14.968,84.28,7.08c17.096-4.901,26.981-20.141,30.776-36.69c2.454-10.702,2.384-21.943,2.605-32.859
		c0.274-13.54,0.094-27.085,0.197-40.627c0.158-20.546,2.273-40.829,3.428-61.311
		C834.893,2016.615,835.903,1997.13,827.552,1982.405z"/>
</g>
</svg>
