<?xml version="1.0" encoding="utf-8"?>
<!-- Generator: Adobe Illustrator 16.0.0, SVG Export Plug-In . SVG Version: 6.00 Build 0)  -->
<!DOCTYPE svg PUBLIC "-//W3C//DTD SVG 1.1//EN" "http://www.w3.org/Graphics/SVG/1.1/DTD/svg11.dtd">
<svg version="1.1" xmlns="http://www.w3.org/2000/svg" xmlns:xlink="http://www.w3.org/1999/xlink" x="0px" y="0px" width="792px"
	 height="612px" viewBox="0 0 792 612" enable-background="new 0 0 792 612" xml:space="preserve">
<g id="Layer_2" display="none">
	<path display="inline" fill="#305429" d="M484.123,322.937c0.827-1.432,1.734-2.819,2.703-4.169
		c1.793-7.72,10.554-14.507,16.028-19.247c2.191-1.897,4.462-3.675,6.776-5.384c1.188-2.136,1.898-4.495,1.095-6.949
		c-0.087-0.265-0.203-0.515-0.304-0.772c-1.657-0.857-3.417-1.501-5.16-2.239c-15.827,1.364-31.425,5.105-46.775,9.653
		c2.434-7.081,6.873-14.269,4.512-21.706c-0.493-1.552-2.162-1.807-3.343-0.882c-4.201,3.286-7.898,11.577-13.288,13.722
		c-6.238,5.985-16.859,9.524-24.406,9.838c-3.64,0.81-7.975-3.146-10.598-4.999c-9.633-6.806-17.503,0.203-27.215,2.604
		c-1.317,0.326-6.622,0.832-6.65,1.027c0.311-2.123,2.452-4.324,3.715-5.929c4.144-5.266,16.771-19.328,2.363-20.846
		c-6.645-0.7-13.746,5.008-18.61,8.747c-4.252,3.268-8.094,7.479-12.469,10.66c-4.249-13.99-3.933-28.534-3.911-43.066
		c0.002-1.188-1.302-2.423-2.532-1.929c-20.204,8.13-29.609,32.549-24.98,53.082c-6.587-2.219-10.82-8.95-14.191-14.714
		c-3.757-6.422-6.725-13.317-11.296-19.232c-0.812-1.052-2.541-0.591-3.141,0.405c-5.887,9.76-1.225,24.338-9.988,32.929
		c-2.411,2.364-6.574,2.006-8.955-0.154c-2.651-2.405-2.5-7.011-2.291-10.238c0.408-6.278,2.824-15.18,7.823-19.424
		c1.384-1.174,0.218-3.396-1.414-3.414c-20.689-0.222-38.882,15.735-54.491,27.411c-3.915,2.928-7.855,5.813-12.015,8.386
		c-1.327,0.821-7.015,4.715-6.936,2.089c0.19-6.331,4.159-12.484,5.026-18.802c0.189-1.383-0.848-2.996-2.46-2.46
		c-12.93,4.296-16.687,16.735-24.697,26.207c-2.883-5.126-4.17-10.951-5.868-16.578c-1.704-5.645-4.263-10.895-7.887-15.566
		c-8.256-10.642-20.192-18.151-32.898-22.339c-1.671-0.551-3.162,1.483-2.259,2.938c6.539,10.539,13.806,23.181,10.672,35.901
		c-10.782-2.478-22.59-1.491-33.297,1.679c3.516-4.113,7.235-8.038,11.284-11.657c0.894-0.799,0.748-2.626-0.405-3.141
		c-18.016-8.048-45.702-9.029-62.387,3.824c4.982-11.799,13.096-22.682,24.456-28.646c1.734-0.911,0.97-3.841-1.009-3.727
		c-17.509,1.01-34.795,6.919-50.406,14.669c-13.857,6.88-29.044,16.914-35.498,31.61c-0.686,0.091-1.312,0.521-1.542,1.396
		c-6.878,26.196-12.819,52.604-13.947,79.759c-0.59,14.214-1.648,28.402-1.935,42.629c-0.249,12.363,1.728,25.702-4.182,36.9
		c-1.206-0.006-2.442,0.965-2.005,2.464c0.057,0.194,0.115,0.388,0.172,0.582c-0.707,1.087-0.145,2.126,0.767,2.597
		c3.213,10.813,6.749,21.521,11.621,31.723c4.984,10.437,12.067,21.485,23.319,25.807c0.789,0.303,1.888-0.182,2.259-0.919
		c1.687-3.355,1.613-10.384,5.926-10.777c7.246-0.661,12.524,5.27,18.234,8.735c1.113,0.676,2.593,0.033,2.938-1.195
		c3.799-13.52,2.533-27.761,5.356-41.45c1.042-5.049,3.563-13.052,9.548-7.875c1.987,1.718,3.499,3.987,4.602,6.46
		c0.151,2.752,1.02,5.431,2.355,8.172c1.085,2.228,3.939,0.504,3.656-1.541c-0.207-1.493-0.82-3.651-1.75-5.987
		c-0.317-4.668,2.021-8.577,4.515-12.755c1.61,13.329,6.945,25.349,11.191,38.2c1.778,5.381,3.672,10.726,5.829,15.967
		c1.616,3.929,3.322,8.639,6.522,11.593c7.503,6.925,16.907-9.882,19.547-14.604c3.105-5.553,4.461-10.978,4.541-17.389
		c0.117-9.476-2.877-18.731-1.673-28.193c5.256,0.706,9.836,3.373,14.547,5.771c1.392,0.709,3.648-0.487,2.938-2.258
		c-1.946-4.852-4.698-9.332-6.586-14.208c-0.54-1.395-1.813-4.332-0.624-5.675c1.814-2.048,8.102,0.603,10.068,1.47
		c8.963,3.955,20.429,13.641,24.346,24.253c-0.514,3.335-0.145,6.77,1.553,10.184c0.979,1.969,3.529,0.769,3.727-1.01
		c0.366-3.284-0.183-6.464-1.287-9.489c1.339-6.413,6.777-12.442,11.019-16.821c5.215-5.385,11.11-9.987,16.895-14.721
		c-3.001,18.729,1.671,38.152,2.477,56.894c0.09,2.104,2.569,2.578,3.727,1.01c8.865-12.012,19.712-22.131,30.754-32.061
		c-8.144,27.021,17.65,51.336,40.303,63.812c1.374,0.758,2.928-0.207,3.009-1.727c0.792-14.866-5.128-30.146-7.586-44.669
		c-1.333-7.876-2.256-16.272-0.405-24.138c1.864-7.92,8.016-11.888,15.404-14.24c24.103-7.675,20.886,35.163,39.021,41.527
		c0.981,0.344,2.25-0.382,2.46-1.397c1.536-7.442,1.211-15.099,2.491-22.547c3.185,5.471,5.056,12.423,6.766,18.071
		c0.585,1.935,3.035,10.039,2.827,15.326c-1.954,1.689-3.884,3.396-5.772,5.136c-1.053,0.97-0.589,3.064,0.882,3.343
		c5.307,1.004,7.766-1.721,8.438-6.324c16.95-14.835,34.789-28.433,45.48-48.942c3.94-7.558,3.497-17.416,4.269-25.693
		c0.713-7.64,1.395-24.761,12.966-22.866c8.816,1.442,16.349,11.364,22.202,17.498c4.456,4.669,10.184,13.971,17.219,14.796
		c7.173,0.843,6.546-11.439,6.762-15.808c0.218-4.396,0.918-9.927,4.049-13.251c2.684-2.85,8.321,9.579,8.928,11.122
		c2.194,5.583,3.683,11.389,6.106,16.897c1.709,3.886,4.787,9.772,9.703,10.063c4.434,0.263,6.655-3.458,8.326-7.021
		c2.744-5.853,4.283-12.304,5.775-18.562c1.265-5.303,2.264-10.66,3.435-15.981c0.929-4.217,1.294-8.61,1.864-12.891
		c0.785-5.896,1.956-12.138,1.82-18.094c-0.131-5.79-3.92-18.014,4.369-19.06c7.24-0.914,14.621,1.844,21.766-0.367
		c1.291-0.399,1.782-1.765,1.195-2.938C512.727,332.193,499.296,326.007,484.123,322.937z"/>
</g>
<g id="Layer_3" display="none">
	<path display="inline" fill="#30783B" d="M534.492,344.032c-9.958-5.317-20.805-2.517-30.788,1.254
		c-9.791,3.698-20.913,10.52-31.815,9.794c5.015-16.02,22.729-23.79,30.907-37.967c0.507-0.878,0.275-2.273-0.717-2.736
		c-15.563-7.263-33.081,1.906-34.029,18.881c-16.886-6.665-26.024-22.044-35.599-36.784c-0.851-1.311-2.594-1.263-3.453,0
		c-2.739,4.02-2.506,9.604-2.57,14.254c-0.063,4.571,1.304,13.546-4.311,15.073c-9.35,2.543-7.707-18.139-6.706-22.958
		c0.381-1.834-1.913-3.533-3.343-1.946c-4.012,4.453-8.141,8.806-12.799,12.593c-2.207,1.795-4.726,3.489-7.519,4.159
		c-3.909,0.938-3.924-5.6-3.814-7.866c0.42-8.717,7.242-17.075,12.572-23.422c5.514-6.566,11.771-12.456,17.837-18.498
		c1.333-1.328-0.008-4.102-1.945-3.343c-18.291,7.163-33.096,20.347-50.262,29.534c0.304-0.984,0.612-1.969,0.998-2.936
		c0.736-1.845-1.554-2.859-2.938-2.259c-6.947,3.011-12.696,9.695-18.014,14.861c-5.985,5.813-11.946,12.824-19.283,16.975
		c-4.245,2.401-3.735-6.908-3.832-9.418c-0.152-3.958,0.001-9.196-2.74-12.427c-2.401-2.83-6.778-6.021-10.605-3.642
		c-1.742,1.083-3.018,2.528-3.964,4.182c-5.195-23.084-21.216-41.711-34.688-60.847c-1.024-1.455-3.944-1.159-3.727,1.009
		c1.924,19.222,11.835,36.914,12.996,56.347c0.206,3.458,0.078,7.234-1.843,10.231c-2.293,3.578-9.533,5.609-13.177,7.302
		c-5.002,2.323-9.838,4.526-14.444,7.58c-4.719,3.13-10.215,7.378-16.113,7.631c-0.11-14.25,3.803-27.707,13.236-38.711
		c1.521-1.774-0.351-4.089-2.423-3.141c-13.591,6.215-26.078,15.629-37.247,25.503c-4.488,3.968-8.732,8.202-13.238,12.152
		c-3.748,3.285-8.444,7.534-13.53,9.105c2.765-9.678,13.78-33.381,0.459-34.557c-11.973-1.057-17.388,11.463-19.58,23.178
		c-9.07-24.925-38.621-36.678-60.364-49.864c-1.646-0.998-3.913,1.054-2.736,2.736c10.477,14.982,25.948,32.497,26.814,51.79
		c-5.972-6.931-13.511-9.923-23.074-5.264c-9.5,4.629-17.767,14.838-28.845,15.318c0.634-4.23,3.398-8.365,5.433-11.907
		c2.737-4.765,5.746-9.397,7.975-14.434c2.917-6.589,1.421-12.971-6.762-13.208c-8.648-0.25-17.536,6.897-24.018,11.76
		c-4.947,3.711-9.542,8.346-14.536,12.184c3.196-7.086,7.852-13.564,7.635-21.732c-0.029-1.104-0.888-1.982-2-2
		c-14.38-0.234-26.326,10.245-33.059,22.348c-4.42-8.527-10.56-16.179-17.172-23.082c-7.058-7.368-15.434-14.251-25.099-17.815
		c-1.723-0.635-3.062,1.514-2.259,2.938c4.526,8.025,8.674,18.43,8.74,27.953c-0.494,0.44-0.804,1.101-0.666,1.913
		c2.396,14.129,2.048,28.513,1.895,42.787c-0.111,10.287,0.433,19.828-1.992,29.847c-2.184,9.025-4.802,17.944-6.532,27.076
		c-0.96,5.07-2.688,12.628,0.265,17.444c0.377,1.365,0.936,2.672,1.738,4.015c0.725,1.213,2.776,1.388,3.454,0
		c2.797-5.723,5.114-12.163,9.211-17.119c-2.472,12.959-0.318,26.104,7.076,37.464c8.544,13.127,23.011,21.291,38.006,24.712
		c0.993,0.227,2.253-0.292,2.46-1.397c3.688-19.665-5.136-39.713-0.75-59.155c6.636,5.853,9.346,15.213,12.24,23.298
		c3.188,8.907,6.774,18.014,14.133,24.326c1.563,1.342,3.708,0.053,3.343-1.945c-1.834-10.018,2.479-20.918,6.781-29.752
		c3.866-7.939,9.181-16.693,16.529-22.088c0.891,8.687,2.094,17.332,3.797,25.9c1.909,9.604,4.364,20.146,9.411,28.648
		c2.033,3.425,5.666,4.853,8.181,1.158c3.271-4.806,2.983-13.137,2.942-18.652c-0.071-9.434-0.027-34.066,15.705-24.135
		c12.974,8.189,16.003,27.499,32.125,31.725c1.408,0.369,2.956-0.977,2.46-2.46c-3.124-9.362-5.972-18.855-7.757-28.572
		c-0.81-4.404-2.122-10.567-0.235-14.886c1.896-4.338,7.936,1.424,9.343,3.433c7.114,10.156,5.762,26.198,4.81,37.839
		c-0.596,7.29-1.5,14.964-3.2,22.355c-3.69,3.502-5.106,8.328-4.06,13.997c0.404,2.186,3.188,1.604,3.857,0
		c1.545-3.699,2.771-7.59,3.765-11.578c2.656-2.144,6.286-3.559,9.835-4.783c6.225-2.148,12.272-4.116,16.149-9.821
		c7.678-11.299,0.254-29.924-4.457-41.04c-2.476-5.843-5.202-11.586-7.065-17.665c-1.552-5.063-2.674-11.43,4.627-10.144
		c18.719,3.299,24.59,27.762,31.421,42.406c0.912,1.954,3.6,0.79,3.727-1.01c0.811-11.438,2.417-23.054,7.879-33.304
		c2.437-4.572,5.414-8.824,7.647-13.397c1.743,12.109,5.72,23.926,10.621,35.063c6.325,14.374,15.22,28.811,28.085,38.192
		c1.293,0.943,2.963-0.346,3.009-1.727c0.364-10.979-1.842-21.955-2.273-32.917c-0.362-9.207-0.095-25.695,12.139-27.082
		c9.672-1.096,19.076,8.482,25.141,14.744c6.472,6.683,12.246,14.21,17.129,22.127c1.059,1.717,3.659,0.981,3.727-1.01
		c0.451-13.217-2.569-26.432-1.279-39.603c13.146,16.164,13.965,42.542,1.69,59.282c-1.178,1.607,1.133,3.86,2.736,2.736
		c23.665-16.577,35.624-43.642,37.367-71.864c11.464,8.253,20.542,20.932,26.633,33.436c4.729,9.706,8.246,22.904,18.119,28.773
		c0.952,0.566,2.171,0.206,2.736-0.717c8.884-14.513,4.728-31.968,7.387-47.96c3.89,2.285,5.835,8.627,7.096,12.304
		c2.978,8.678,4.554,17.862,5.902,26.91c2.363,15.852,4.077,32.372,3.475,48.426c-0.078,2.076,2.699,2.611,3.727,1.01
		c4.711-7.346,9.054-14.91,13.397-22.476c4.264-7.427,9.041-14.637,12.487-22.491c4.895-11.155,5.667-23.12,6.422-35.081
		c3.855,5.123,9.063,10.104,11.85,1.248c1.926-6.118,1.215-12.69-1.301-18.5c-2.616-6.04-6.466-12.183-5.224-19.042
		c1.727-9.535,14.537-12.334,22.326-14.382c8.188-2.153,18.152-3.506,24.557-9.562C535.812,346.309,535.613,344.631,534.492,344.032
		z"/>
</g>
<g id="Layer_4">
	<path fill="#305429" d="M715.135,268.903c-8.598-3.636-19.313-7.219-13.131-18.279c7.122-12.742,37.035-12.356,35.454-30.573
		c-1.911-22.019-35.088-17.313-49.525-17.679c-5.239-0.132-11.076-0.911-15.839-3.196c-3.022-1.449,1.797-4.717,3.176-5.99
		c5.507-5.08,12.297-10.767,11.766-19.017c-0.093-1.452-1.134-2.632-2.647-2.647c-12.597-0.131-24.123,5.966-35.019,11.624
		c-11.063,5.745-24.158,14.001-37.152,11.927c4.556-9.606,18.463-26.772,3.183-31.678c-15.24-4.894-29.915,9.718-35.872,23.455
		c-8.356-11.492-16.87-23.035-24.552-34.938c-6.469-10.022-12.227-21.832-22.614-28.411c-1.752-1.109-3.928,0.354-3.983,2.286
		c-0.642,22.052,7.465,43.485,1.864,65.403c-0.45,1.76-1.366,7.106-3.826,5.69c-2.091-1.204-3.833-3.3-5.59-4.922
		c-3.759-3.474-8.672-7.555-14.012-7.877c-7.057-0.426-13.648,2.444-20.012,5.146c-5.281,2.242-17.857,9.03-22.468,2.364
		c-2.405-3.478,8.154-12.249,10.172-14.264c3.75-3.746,7.688-7.539,9.776-12.494c0.64-1.52-0.971-3.499-2.553-3.351
		c-14.558,1.356-29.354,6.692-42.27,13.479c-11.174,5.872-21.938,16.008-34.591,18.795c3.891-11.13,18.442-29.705,2.545-35.19
		c-18.191-6.278-28.377,17.551-35.458,31.409c-4.073-6.539-7.518-13.462-12.091-19.677c-4.734-6.433-11.193-10.492-17.882-14.608
		c-13.369-8.225-28.68-17.44-44.653-18.856c-2.175-0.193-3.063,2.347-2.285,3.983c4.015,8.456,8.692,16.573,12.594,25.09
		c4.29,9.361,9.834,21.774,6.756,32.232c-4.255,14.46-22.988,4.125-29.966-1.365c-8.775-6.905-15.771-15.649-23.568-23.563
		c-1.259-1.278-3.216-0.856-4.157,0.536c-5.849,8.645-10.008,18.32-15.976,26.93c-3.218,4.646-7.048,9.197-12.024,12.01
		c-4.5,2.544-10.895,0.993-12.138-4.391c-2.752-11.922,23.141-37.694,4.003-45.282c-8.046-3.19-16.808,1.624-23.514,5.799
		c-9.591,5.971-18.054,13.598-27.236,20.15c-5.621,4.012-17.211,11.921-16.258-0.656c0.883-11.66,7.192-22.537,9.852-33.817
		c0.313-1.325,0.49-2.694,0.546-4.053c0.074-1.773-1.74-2.939-3.35-2.553c-22.245,5.341-39.322,26.381-47.263,49.08
		c-8.181,34.616-10.53,70.126-11.716,105.672c-2.992,14.22-7.379,28.171-8.792,42.666c-0.922,1.213-1.803,2.463-2.648,3.74
		c-11.536,7.959-25.322,12.541-35.127,23.141c-4.581,4.953-5.079,12.895,0,17.783c10.24,9.852,23.212,15.566,34.948,23.09
		c-0.068,0.492-0.139,0.982-0.185,1.48c-0.802,8.707,4.562,16.523,10.432,22.338c13.741,13.605,33.051,19.951,48.763,30.789
		c0.671,0.463,1.317,0.539,1.89,0.393c-3.228-6.795-6.48-13.586-6.851-21.24c0-0.008,0.004-0.014,0.004-0.021
		c-0.767-4.588-0.425-9.393,1.256-14.381c3.838-11.391,14.465-20.107,24.452-25.963c2.119-1.242,7.142-4.934,8.057-1.227
		c1.022,4.139,0.116,9.264-0.172,13.436c-0.954,13.773-3.064,27.283-0.64,41.031c0.347,1.961,3.153,2.549,4.425,1.168
		c14.143-15.33,26.096-32.217,44.389-43.023c2.443-1.443,7.121-4.43,8.721-0.637c1.089,2.58,1.455,5.549,2.056,8.266
		c1.714,7.748,4.985,14.395,9.979,20.584c2.961,3.672,9.689,11.783,15.433,9.846c1.944-0.658,3.134-3.063,4.396-4.512
		c3.016-3.465,8.004-0.701,11.105,1.049c6.875,3.885,12.724,9.789,17.896,15.67c2.456,2.793,5.419,6.299,7.527,10.066
		c2.014,2.836,3.754,5.863,5.226,9.045c0.236,0.508,0.459,1.076,0.676,1.674c0.436-0.043,0.847-0.186,1.189-0.428
		c-0.096-0.504-0.173-1.01-0.277-1.512c-0.83-4.051-2.1-8.68-1.836-13.014c-1.292-10.994,0.917-22.713,5.095-32.564
		c2.825-6.658,8.537-15.127,16.343-16.139c8.428-1.094,11.198,10.293,11.878,16.414c0.217,1.959,2.924,3.932,4.519,1.871
		c5.566-7.189,12.696-13.188,19.723-18.893c6.771-5.496,14.395-11.686,22.607-15.176c1.051,3.299,1.069,7.313,1.372,10.51
		c0.66,6.975,1.096,13.967,1.781,20.938c0.795,8.102,0.88,24.496,9.351,29.064c11.467,6.184,17.254-16.115,18.968-22.588
		c2.243-8.475,22.8,9.088,25.809,11.762c9.112,8.094,17.205,17.588,24.034,27.666c1.421,2.096,4.961,1.432,4.933-1.338
		c-0.149-14.709-4.138-31.701,1.444-45.848c1.451,2.814,2.061,5.92,2.305,9.113c0.899,4.293,2.065,8.52,3.155,12.764
		c1.121-0.197,2.138-1.031,2.225-2.502c1.529-26.16,26.653-43.703,42.727-62.23c20.608,31.381,51.766,52.959,84.743,69.992
		c2.239,1.158,4.2-0.719,3.89-2.988c-1.421-10.404-1.341-21.172-0.302-31.598c0.868-8.697,3.497-26.828,15.051-27.506
		c8.286-0.486,14.183,11.646,17.81,17.414c3.646,5.799,7.815,13.553,14.893,15.588c8.749,2.516,16.054-8.85,18.693-15.33
		c6.459-15.863,4.381-33.346,11.707-49.025c3.45-7.383,7.372-14.42,9.784-22.244c2.77-8.984,5.036-18.25,9.05-26.781
		c5.681-12.078,21.682-21.52,22.215-35.662C734.105,278.519,723.056,272.254,715.135,268.903z"/>
</g>
<g id="Layer_5">
	<path fill="#30783B" d="M785.351,238.115c-14.853-0.694-26.604,11.119-40.966,11.897c0.505-14.868,3.328-29.464,1.162-44.369
		c-0.27-1.851-2.514-2.201-3.89-1.583c-6.621,2.978-11.609,7.989-14.96,14.185c-11.895-17.418-26.002-33.192-38.336-50.297
		c-1.357-1.883-4.05-1.638-4.838,0.632c-5.491,15.824-5.307,33.722-14.392,48.242c-4.144,6.624-14.262,12.271-17.58,2.324
		c-2.32-6.957-1.926-14.833-2.538-22.065c-0.143-1.681-1.586-3.054-3.351-2.553c-16.475,4.674-27.34,19.203-41.412,28.218
		c1.674-10.928,10.637-19.785,15.28-29.624c1.021-2.162-0.625-4.337-2.989-3.889c-27.733,5.261-47.12,26.318-71.029,39.391
		c6.174-12.922,19.081-33.455-0.084-36.597c-9.417-1.544-16.767,5.627-22.547,12.102c-5.25,5.879-9.7,12.429-13.937,19.092
		c-1.127-13.545-8.137-26.43-15.563-37.583c-10.481-15.741-23.792-30.065-38.398-42.052c-1.981-1.626-5.115-0.154-4.425,2.576
		c5.409,21.392,17.846,53.259,2.005,72.873c-3.375,4.179-7.97,8.932-13.288,10.427c-4.079,1.145-5.603-3.844-6.296-6.795
		c-2.113-9.016,0.174-19.925,3.886-28.22c0.643-1.435,0.248-3.538-1.582-3.889c-31.975-6.128-47.299,28.727-73.592,38.315
		c4.421-12.685,14.709-22.58,20.904-34.426c0.9-1.719-0.194-4.035-2.285-3.983c-15.247,0.377-28.452,9.023-39.774,18.525
		c-10.529,8.838-19.77,19.423-27.798,30.635c-6.562-26.353-21.454-50.185-41.743-68.239c-1.9-1.692-5.213-0.093-4.425,2.575
		c3.906,13.221,3.873,28.601,1.109,42.016c-2.792,13.548-13.638,27.823-28.65,18.316c-8.874-5.618-8.759-17.966-15.148-25.437
		c-7.64-8.93-19.748,5.813-25.656,13.567c-8.006-19.74-3.133-42.838,0.65-63.023c0.498-2.654-2.359-4.338-4.425-2.576
		c-17.276,14.743-37.11,34.483-42.925,57.568c-7.778-9.102-17.616-17.345-27.992-22.243c-1.835-0.866-4.854,0.599-3.889,2.99
		c3.805,9.436,9.472,18.018,14.712,26.779c-3.787-3.734-8.207-5.492-13.668-2.584c-5.842,3.109-5.252,12.713-5.399,18.323
		c-0.173,6.659,1.104,14.612-0.091,21.468C96.5,246.981,82.103,223.256,58.66,220.908c-1.587-0.159-3.185,1.838-2.553,3.351
		c4.306,10.309,10.364,19.481,17.213,28.141c-22.246-8.184-57.776-12.911-62.071,14.105c-4.419,27.795,45.83,18.088,65.869,20.747
		c-6.886,6.979-12.728,15.306-17.787,23.549c-4.796,7.816-11.683,19.713-7.215,29.021c4.737,9.869,21.166,3.914,28.307,1.346
		c10.875-3.912,24.352-12.287,36.674-12.207c-13.413,16.025-32.562,31.152-29.223,54.137c0.234,1.609,2.607,2.52,3.889,1.582
		c6.856-5.006,12.358-11.656,19.349-16.445c8.515-5.834,17.372,0.025,22.491,7.27c7.884,11.16,12.041,24.697,26.275,29.299
		c1.646,0.531,3.355-0.889,3.351-2.553c-0.048-17.43-0.886-34.846,0.684-52.209c11.157,12.475,21.375,28.953,21.818,45.59
		c0.084,3.158,4.126,3.383,5.2,0.703c4.067-10.143,10.701-19.281,17.885-27.424c5.941-6.732,13.343-13.895,22.036-17.096
		c-3.402,10.574-8.785,20.373-8.059,31.904c0.146,2.316,2.767,3.486,4.52,1.871c9.753-8.988,16.295-21.236,26.333-29.863
		c1.802,13.727,9.352,26.914,17.006,38c8.243,11.938,19.34,24.807,33.505,29.607c1.886,0.639,3.853-1.395,3.256-3.256
		c-5.637-17.564-19.603-37.813-14.1-56.879c15.976,5.684,24.701,23.715,34.412,36.416c1.402,1.834,4.02,1.674,4.838-0.633
		c7.312-20.627,4.471-42.922,9.977-63.885c14.081,3.467,9.745,26.016,8.649,36.707c-0.186,1.811,1.82,2.881,3.351,2.553
		c17.564-3.773,34.734-13.865,53.029-12.389c-5.867,8.494-13.402,16.26-14.022,27.045c-0.091,1.576,1.285,2.469,2.647,2.646
		c25.615,3.334,35.435-23.787,51.098-38.234c3.183-2.936,9.382-7.668,14.078-6.447c3.42,0.889,4.589,7.266,5.364,10.041
		c2.685,9.607,4.573,19.277,10.979,27.246c1.367,1.703,3.805,0.488,4.425-1.168c6.454-17.234,19.365-30.363,34.46-40.348
		c7.744,21.393,19.972,43.182,37.888,57.4c1.849,1.467,4.31,0.553,4.519-1.871c1.053-12.193,6.268-24.324,12.463-34.725
		c5.823-9.773,15.899-21.771,28.632-17.738c10.862,3.441,17.221,19.379,21.971,28.518c5.359,10.311,10.445,21.842,19.286,29.711
		c6.064,5.396,17.144,12.699,25.319,7.551c7.254-4.57,7.992-16.643,9.113-24.133c1.623-10.857,2.646-30.127,14.934-34.396
		c10.644-3.699,25.202,7.82,34.07,12.377c5.155,2.65,10.515,4.959,16.175,6.268c1.307,0.303,2.988-0.389,3.256-1.85
		c2.979-16.32,2.288-36.77-6.669-51.291c-3.978-6.447-9.464-11.935-14.314-17.71c-4.239-5.049-5.784-9.454-2.185-15.365
		c6.777-11.125,22.512-17.536,33.572-23.249c11.049-5.704,23.523-10.865,32.596-19.612
		C788.957,240.963,787.58,238.22,785.351,238.115z"/>
</g>
</svg>
