<?xml version="1.0" encoding="utf-8"?>
<!-- Generator: Adobe Illustrator 16.0.0, SVG Export Plug-In . SVG Version: 6.00 Build 0)  -->
<!DOCTYPE svg PUBLIC "-//W3C//DTD SVG 1.1//EN" "http://www.w3.org/Graphics/SVG/1.1/DTD/svg11.dtd">
<svg version="1.1" xmlns="http://www.w3.org/2000/svg" xmlns:xlink="http://www.w3.org/1999/xlink" x="0px" y="0px" width="792px"
	 height="612px" viewBox="0 0 792 612" enable-background="new 0 0 792 612" xml:space="preserve">
<g id="Layer_1" display="none">
	<path display="inline" fill="#305429" d="M43.828,336.104c-10.855-27.136,82.069-71.034,103.448-68.276s39.31-3.448,44.138-5.517
		s0.69,41.38-14.482,56.552s-67.586,33.104-91.035,33.104S46.586,343,43.828,336.104z"/>
</g>
<g id="Layer_2">
	<path fill="#305429" d="M747.881,173.842c-32.666-3.915-64.619,2.858-95.79,12.093c3.138-9.128,8.86-18.395,5.816-27.981
		c-0.637-2.001-2.787-2.329-4.311-1.138c-6.665,5.214-12.337,20.241-22.32,18.186c-11.912-2.454-14.77-20.63-16.935-30.384
		c-0.625-2.819-5.285-2.226-5.063,0.686c0.7,9.216,2.556,18.281,2.444,27.561c-0.05,4.328-0.568,9.355-3.729,12.601
		c-5.061,5.202-12.511-1.796-16.65-4.721c-12.418-8.773-22.564,0.261-35.083,3.357c-1.699,0.419-8.538,1.072-8.573,1.324
		c0.4-2.736,3.16-5.575,4.789-7.643c5.34-6.788,21.62-24.916,3.047-26.873c-8.567-0.902-17.721,6.456-23.991,11.275
		c-5.481,4.213-10.436,9.642-16.075,13.742c-5.477-18.034-5.069-36.783-5.04-55.518c0.002-1.531-1.68-3.124-3.265-2.486
		c-26.045,10.481-38.17,41.96-32.203,68.428c-8.492-2.86-13.948-11.538-18.294-18.968c-4.844-8.279-8.67-17.167-14.563-24.793
		c-1.046-1.355-3.274-0.761-4.049,0.522c-7.589,12.582-1.579,31.375-12.876,42.449c-3.108,3.047-8.475,2.586-11.544-0.198
		c-3.418-3.101-3.223-9.039-2.953-13.198c0.525-8.094,3.641-19.569,10.085-25.04c1.784-1.514,0.281-4.379-1.822-4.401
		c-26.671-0.287-50.124,20.285-70.246,35.335c-5.046,3.774-10.126,7.494-15.489,10.81c-1.711,1.059-9.043,6.079-8.941,2.693
		c0.246-8.161,5.362-16.094,6.479-24.237c0.244-1.784-1.093-3.862-3.172-3.172c-16.668,5.538-21.511,21.573-31.837,33.783
		c-3.717-6.609-5.376-14.117-7.565-21.371c-2.196-7.277-5.496-14.045-10.167-20.067c-10.643-13.719-26.03-23.398-42.41-28.797
		c-2.154-0.71-4.076,1.912-2.912,3.787c8.429,13.586,17.798,29.883,13.757,46.281c-13.899-3.194-29.121-1.922-42.924,2.164
		c4.533-5.303,9.327-10.361,14.546-15.028c1.152-1.029,0.963-3.385-0.522-4.049c-23.224-10.375-58.916-11.64-80.424,4.929
		c6.423-15.21,16.882-29.24,31.526-36.928c2.236-1.174,1.251-4.952-1.301-4.805c-22.571,1.303-44.855,8.92-64.979,18.911
		c-17.864,8.87-37.442,21.804-45.761,40.749c-0.884,0.118-1.691,0.672-1.988,1.8c-8.867,33.77-16.526,67.812-17.98,102.818
		c-0.761,18.323-2.124,36.614-2.494,54.954c-0.321,15.938,2.228,33.134-5.391,47.568c-1.555-0.008-3.148,1.243-2.584,3.177
		c0.073,0.25,0.148,0.499,0.221,0.751c-0.911,1.399-0.186,2.739,0.989,3.346c4.142,13.941,8.7,27.744,14.981,40.895
		c6.425,13.455,15.556,27.698,30.061,33.268c1.017,0.391,2.434-0.234,2.912-1.184c2.174-4.325,2.079-13.387,7.639-13.893
		c9.341-0.854,16.145,6.793,23.506,11.259c1.435,0.872,3.343,0.043,3.788-1.54c4.898-17.429,3.265-35.786,6.905-53.434
		c1.342-6.509,4.592-16.826,12.309-10.151c2.562,2.213,4.51,5.139,5.933,8.326c0.195,3.548,1.315,7.002,3.036,10.534
		c1.398,2.873,5.078,0.65,4.712-1.986c-0.267-1.924-1.057-4.706-2.256-7.717c-0.409-6.018,2.605-11.059,5.82-16.444
		c2.076,17.185,8.954,32.679,14.427,49.246c2.292,6.937,4.734,13.825,7.514,20.583c2.083,5.063,4.282,11.137,8.408,14.943
		c9.672,8.928,21.795-12.737,25.199-18.825c4.003-7.158,5.751-14.153,5.854-22.417c0.15-12.216-3.709-24.147-2.157-36.344
		c6.776,0.908,12.68,4.348,18.753,7.439c1.794,0.914,4.703-0.629,3.787-2.91c-2.509-6.254-6.057-12.03-8.49-18.317
		c-0.696-1.798-2.337-5.584-0.804-7.314c2.338-2.641,10.445,0.776,12.979,1.894c11.554,5.099,26.335,17.585,31.385,31.267
		c-0.663,4.298-0.187,8.727,2.002,13.128c1.263,2.538,4.55,0.989,4.805-1.302c0.472-4.235-0.236-8.334-1.659-12.234
		c1.726-8.266,8.737-16.038,14.204-21.684c6.723-6.941,14.322-12.876,21.78-18.977c-3.869,24.144,2.155,49.183,3.193,73.342
		c0.116,2.711,3.312,3.323,4.805,1.302c11.428-15.485,25.411-28.529,39.645-41.33c-10.499,34.834,22.753,66.178,51.956,82.262
		c1.771,0.977,3.774-0.267,3.879-2.226c1.021-19.166-6.61-38.862-9.779-57.585c-1.719-10.151-2.909-20.976-0.522-31.115
		c2.403-10.21,10.334-15.326,19.857-18.357c31.071-9.895,26.925,45.328,50.303,53.534c1.265,0.442,2.901-0.494,3.172-1.803
		c1.98-9.593,1.562-19.463,3.212-29.065c4.104,7.052,6.517,16.016,8.722,23.297c0.755,2.492,3.913,12.941,3.645,19.757
		c-2.519,2.179-5.007,4.376-7.44,6.62c-1.357,1.251-0.76,3.95,1.138,4.31c6.841,1.295,10.011-2.218,10.877-8.152
		c21.851-19.125,44.847-36.654,58.629-63.094c5.08-9.741,4.509-22.451,5.503-33.121c0.919-9.849,1.799-31.92,16.716-29.478
		c11.365,1.859,21.074,14.65,28.62,22.558c5.745,6.019,13.128,18.011,22.197,19.073c9.247,1.087,8.439-14.747,8.716-20.378
		c0.282-5.667,1.184-12.797,5.22-17.082c3.46-3.673,10.729,12.349,11.509,14.338c2.83,7.197,4.749,14.682,7.873,21.782
		c2.203,5.011,6.172,12.599,12.509,12.975c5.716,0.337,8.578-4.459,10.733-9.052c3.537-7.546,5.521-15.861,7.445-23.929
		c1.629-6.836,2.918-13.742,4.426-20.603c1.199-5.436,1.67-11.1,2.405-16.617c1.012-7.6,2.52-15.647,2.347-23.325
		c-0.169-7.464-5.054-23.222,5.632-24.57c9.334-1.178,18.849,2.377,28.059-0.473c1.664-0.515,2.296-2.275,1.541-3.788
		c-9.424-18.852-26.739-26.827-46.298-30.785c5.962-10.324,15.074-18.953,24.148-26.443c10.467-8.641,24.448-18.213,38.593-18.017
		C751.29,179.045,751.089,174.227,747.881,173.842z"/>
</g>
<g id="Layer_3">
	<path fill="#30783B" d="M750.071,250.653c-12.838-6.855-26.819-3.244-39.69,1.616c-12.622,4.768-26.958,13.561-41.013,12.625
		c6.463-20.651,29.3-30.668,39.842-48.943c0.655-1.132,0.355-2.931-0.924-3.528c-20.062-9.362-42.645,2.458-43.868,24.34
		c-21.767-8.592-33.547-28.417-45.89-47.419c-1.098-1.689-3.343-1.628-4.451,0c-3.532,5.182-3.23,12.38-3.313,18.375
		c-0.08,5.893,1.68,17.462-5.557,19.431c-12.053,3.278-9.936-23.383-8.646-29.596c0.491-2.365-2.465-4.554-4.308-2.508
		c-5.172,5.74-10.494,11.351-16.499,16.233c-2.846,2.314-6.094,4.498-9.693,5.362c-5.04,1.208-5.059-7.219-4.918-10.141
		c0.541-11.237,9.336-22.012,16.207-30.194c7.108-8.464,15.173-16.057,22.993-23.846c1.72-1.711-0.011-5.287-2.508-4.309
		c-23.579,9.234-42.664,26.229-64.794,38.072c0.394-1.269,0.791-2.539,1.287-3.784c0.949-2.378-2.002-3.686-3.787-2.912
		c-8.955,3.882-16.367,12.499-23.222,19.157c-7.716,7.494-15.399,16.532-24.858,21.882c-5.472,3.096-4.815-8.905-4.939-12.141
		c-0.196-5.103,0.002-11.855-3.532-16.02c-3.096-3.648-8.738-7.761-13.671-4.695c-2.245,1.396-3.891,3.259-5.109,5.391
		c-6.697-29.758-27.351-53.771-44.718-78.439c-1.32-1.875-5.084-1.495-4.805,1.301c2.479,24.779,15.257,47.587,16.753,72.638
		c0.266,4.458,0.101,9.326-2.375,13.189c-2.956,4.613-12.29,7.231-16.986,9.413c-6.448,2.995-12.683,5.835-18.62,9.771
		c-6.083,4.035-13.169,9.511-20.772,9.837c-0.142-18.37,4.902-35.717,17.063-49.903c1.961-2.287-0.453-5.271-3.124-4.049
		c-17.521,8.012-33.618,20.148-48.015,32.876c-5.785,5.115-11.256,10.573-17.065,15.666c-4.832,4.235-10.886,9.712-17.441,11.738
		c3.564-12.476,17.764-43.032,0.591-44.548c-15.435-1.362-22.415,14.777-25.24,29.879c-11.692-32.132-49.787-47.283-77.816-64.281
		c-2.121-1.287-5.044,1.359-3.527,3.527c13.506,19.314,33.45,41.893,34.567,66.763c-7.698-8.934-17.417-12.792-29.745-6.785
		c-12.246,5.967-22.904,19.127-37.185,19.747c0.817-5.454,4.38-10.784,7.004-15.35c3.529-6.143,7.407-12.115,10.281-18.607
		c3.761-8.494,1.833-16.721-8.717-17.026c-11.148-0.323-22.606,8.892-30.962,15.16c-6.377,4.784-12.301,10.759-18.738,15.706
		c4.12-9.134,10.122-17.486,9.843-28.016c-0.038-1.422-1.145-2.555-2.578-2.578c-18.538-0.302-33.937,13.207-42.617,28.809
		c-5.698-10.993-13.613-20.856-22.137-29.755c-9.099-9.498-19.896-18.372-32.355-22.966c-2.221-0.819-3.947,1.952-2.912,3.787
		c5.834,10.346,11.182,23.758,11.268,36.035c-0.637,0.568-1.036,1.418-0.859,2.466c3.089,18.214,2.641,36.756,2.442,55.157
		c-0.143,13.262,0.558,25.561-2.567,38.476c-2.815,11.635-6.19,23.132-8.42,34.905c-1.237,6.536-3.466,16.278,0.341,22.487
		c0.486,1.76,1.207,3.444,2.241,5.176c0.934,1.563,3.579,1.788,4.453,0c3.606-7.378,6.593-15.68,11.875-22.069
		c-3.187,16.706-0.41,33.651,9.121,48.295c11.014,16.923,29.664,27.447,48.994,31.858c1.28,0.292,2.904-0.378,3.172-1.803
		c4.753-25.35-6.621-51.195-0.967-76.258c8.554,7.545,12.048,19.612,15.778,30.033c4.11,11.483,8.733,23.222,18.219,31.359
		c2.016,1.729,4.781,0.067,4.31-2.508c-2.364-12.914,3.196-26.966,8.742-38.354c4.983-10.234,11.835-21.52,21.308-28.474
		c1.148,11.198,2.7,22.343,4.895,33.388c2.461,12.38,5.626,25.972,12.132,36.932c2.62,4.416,7.303,6.257,10.546,1.493
		c4.216-6.194,3.846-16.935,3.792-24.045c-0.092-12.161-0.035-43.915,20.246-31.112c16.725,10.557,20.629,35.45,41.413,40.896
		c1.815,0.476,3.81-1.259,3.172-3.17c-4.026-12.07-7.698-24.308-10-36.834c-1.044-5.678-2.736-13.623-0.303-19.189
		c2.443-5.592,10.23,1.835,12.044,4.425c9.171,13.093,7.428,33.772,6.2,48.778c-0.769,9.399-1.933,19.291-4.125,28.818
		c-4.757,4.515-6.583,10.736-5.233,18.046c0.521,2.817,4.109,2.066,4.973,0c1.992-4.769,3.573-9.784,4.853-14.926
		c3.424-2.765,8.104-4.588,12.678-6.166c8.024-2.77,15.82-5.308,20.819-12.662c9.898-14.565,0.327-38.575-5.745-52.905
		c-3.191-7.531-6.706-14.936-9.108-22.772c-2.001-6.525-3.447-14.733,5.965-13.076c24.131,4.253,31.7,35.788,40.505,54.668
		c1.175,2.518,4.64,1.017,4.804-1.302c1.045-14.746,3.115-29.72,10.158-42.934c3.141-5.894,6.979-11.375,9.858-17.271
		c2.247,15.61,7.374,30.843,13.692,45.201c8.154,18.53,19.62,37.14,36.205,49.234c1.667,1.217,3.82-0.445,3.88-2.226
		c0.469-14.155-2.375-28.303-2.932-42.435c-0.467-11.868-0.122-33.124,15.648-34.912c12.469-1.412,24.592,10.936,32.409,19.008
		c8.343,8.614,15.787,18.318,22.081,28.523c1.365,2.213,4.718,1.267,4.805-1.302c0.582-17.037-3.312-34.073-1.648-51.052
		c16.947,20.837,18.003,54.841,2.179,76.421c-1.519,2.072,1.46,4.978,3.527,3.527c30.507-21.368,45.923-56.258,48.17-92.641
		c14.78,10.639,26.482,26.983,34.333,43.103c6.096,12.512,10.631,29.526,23.357,37.093c1.229,0.73,2.8,0.265,3.528-0.924
		c11.453-18.71,6.095-41.211,9.521-61.827c5.016,2.946,7.523,11.121,9.147,15.861c3.84,11.187,5.872,23.026,7.609,34.691
		c3.046,20.434,5.257,41.729,4.479,62.426c-0.101,2.677,3.479,3.366,4.805,1.302c6.072-9.47,11.672-19.221,17.271-28.975
		c5.497-9.573,11.655-18.868,16.097-28.993c6.31-14.381,7.307-29.805,8.278-45.224c4.971,6.604,11.683,13.024,15.275,1.608
		c2.482-7.887,1.566-16.359-1.677-23.849c-3.371-7.786-8.334-15.705-6.732-24.547c2.226-12.292,18.74-15.9,28.781-18.54
		c10.555-2.776,23.4-4.52,31.656-12.326C751.771,253.587,751.517,251.424,750.071,250.653z"/>
</g>
<g id="Layer_4">
</g>
</svg>
